<?xml version="1.0" standalone="no"?>
<!DOCTYPE svg PUBLIC "-//W3C//DTD SVG 20010904//EN"
 "http://www.w3.org/TR/2001/REC-SVG-20010904/DTD/svg10.dtd">
<svg version="1.0" xmlns="http://www.w3.org/2000/svg"
 width="16.000000pt" height="16.000000pt" viewBox="0 0 16.000000 16.000000"
 preserveAspectRatio="xMidYMid meet">
<metadata>
Created by potrace 1.11, written by Peter Selinger 2001-2013
</metadata>
<g transform="translate(0.000000,16.000000) scale(0.002286,-0.002286)"
fill="#000000" stroke="none">
<path d="M230 6986 c-108 -30 -187 -110 -216 -221 -20 -75 -20 -6455 0 -6530
30 -113 108 -191 220 -221 76 -20 6456 -20 6531 0 113 30 191 108 221 220 20
76 20 6456 0 6532 -30 112 -108 190 -221 220 -72 20 -6466 19 -6535 0z m4400
-1971 l1130 1130 0 -2645 0 -2645 -2035 2035 -2035 2035 0 -1903 0 -1902 -225
0 -225 0 0 2512 0 2513 1130 -1130 1130 -1130 1130 1130z"/>
<path d="M4567 4242 c-383 -383 -697 -702 -697 -707 0 -6 315 -325 700 -710
l700 -700 0 1408 c0 774 -1 1407 -3 1407 -1 0 -316 -314 -700 -698z"/>
</g>
</svg>
