<?xml version="1.0" standalone="no"?>
<!DOCTYPE svg PUBLIC "-//W3C//DTD SVG 20010904//EN"
 "http://www.w3.org/TR/2001/REC-SVG-20010904/DTD/svg10.dtd">
<svg version="1.0" xmlns="http://www.w3.org/2000/svg"
 width="16.000000pt" height="16.000000pt" viewBox="0 0 16.000000 16.000000"
 preserveAspectRatio="xMidYMid meet">
<metadata>
Created by potrace 1.11, written by Peter Selinger 2001-2013
</metadata>
<g transform="translate(0.000000,16.000000) scale(0.002128,-0.002128)"
fill="#000000" stroke="none">
<path d="M5030 5459 c-690 -692 -1260 -1258 -1265 -1259 -6 0 -574 565 -1263
1255 -689 690 -1254 1255 -1256 1255 -2 0 -4 -117 -4 -259 0 -142 -3 -264 -6
-270 -4 -6 -4 -11 1 -11 9 0 8 -442 -1 -465 -3 -8 -2 -15 2 -15 8 0 7 -443 -2
-465 -3 -8 -2 -15 2 -15 8 0 7 -443 -2 -465 -3 -8 -2 -15 2 -15 8 0 7 -443 -2
-465 -3 -8 -2 -15 2 -15 8 0 7 -403 -2 -425 -3 -8 -2 -15 2 -15 8 0 7 -1443
-2 -1465 -3 -8 -2 -15 2 -15 8 0 7 -443 -2 -465 -3 -8 -2 -15 2 -15 8 0 7
-443 -2 -465 -3 -8 -2 -15 2 -15 4 0 7 -60 7 -132 l0 -133 250 0 250 0 0 2118
c0 1164 2 2117 4 2117 2 0 1022 -1019 2268 -2265 1245 -1246 2266 -2265 2268
-2265 3 0 5 1330 5 2955 0 1625 -1 2955 -3 2954 -1 -1 -567 -567 -1257 -1260z
m708 -2443 l-3 -786 -777 778 c-428 427 -780 780 -783 783 -3 3 347 358 777
789 l783 782 3 -780 c1 -429 1 -1134 0 -1566z"/>
</g>
</svg>
