<?xml version="1.0" encoding="utf-8"?>
<!-- Generator: Adobe Illustrator 19.2.1, SVG Export Plug-In . SVG Version: 6.00 Build 0)  -->
<!DOCTYPE svg PUBLIC "-//W3C//DTD SVG 1.1//EN" "http://www.w3.org/Graphics/SVG/1.1/DTD/svg11.dtd">
<svg version="1.1" id="Layer_1" xmlns="http://www.w3.org/2000/svg" xmlns:xlink="http://www.w3.org/1999/xlink" x="0px" y="0px"
	 viewBox="0 0 100 140.8" style="enable-background:new 0 0 100 140.8;" xml:space="preserve">
<style type="text/css">
	.st0{fill:#e4423f;}
</style>
<g>
	<polygon class="st0" points="26.9,12.9 26.9,6.8 35.7,6.8 35.7,0.2 20.2,0.2 20.2,18.9 35.7,18.9 35.7,12.9 	"/>
	<path class="st0" d="M51.6,6.8h6.2V0.2H42.3c0,0,0,3.3,0,6.6c2.1,2.1,3.2,3.1,6.1,6.1c-1.8,0-6.1,0-6.1,0v6.1h15.5v-6.1L51.6,6.8z"
		/>
	<path class="st0" d="M73.6,6.8h6.2V0.2H64.3c0,0,0,3.3,0,6.6c2.1,2.1,3.2,3.1,6.2,6.1c-1.8,0-6.2,0-6.2,0v6.1h15.5v-6.1L73.6,6.8z"
		/>
</g>
<path class="st0" d="M0,27.6l9.3,101.6l40.6,11.6l40.6-11.6L100,27.6H0z M79.4,60.7L49.2,73.6l-0.1,0h0.1h29.1L75,112l-25.7,7.5l0,0
	v0l-25.8-7.6l-1.7-19.3h0h12.7h0l0.8,10l13.7,3.5l0.1,0v0l14.2-4l1-16.1l-15.2,0v0l-28.4-0.1h-1v-9.4h0.2l-0.2-2.7l29.3-12.2
	l1.7-0.7h-1.7H18.8l-1.5-12.4h32h31.4h0L79.4,60.7z"/>
</svg>
