<?xml version="1.0" encoding="utf-8"?>
<!-- Generator: Adobe Illustrator 19.2.1, SVG Export Plug-In . SVG Version: 6.00 Build 0)  -->
<!DOCTYPE svg PUBLIC "-//W3C//DTD SVG 1.1//EN" "http://www.w3.org/Graphics/SVG/1.1/DTD/svg11.dtd">
<svg version="1.1" id="Layer_1" xmlns="http://www.w3.org/2000/svg" xmlns:xlink="http://www.w3.org/1999/xlink" x="0px" y="0px"
	 viewBox="0 0 35.8 24" style="enable-background:new 0 0 35.8 24;" xml:space="preserve">
<style type="text/css">
	.st0{fill:#E4423F;}
</style>
<path class="st0" d="M35.1,0c0,0-0.7,0.7-1.5,1.5l-1.4,1.5l-0.6,2.2l-1.6,0c-3,0.1-4.7,0.3-5,0.7C25,6.1,25,6.1,25.1,6.2
	C25.8,6.8,32,7,34.8,6.5c1-0.2,1.3-0.4,0.7-0.7c-0.4-0.2-1.9-0.4-2.6-0.4c-0.2,0-0.2,0-0.2-0.1c0,0,0.1-0.5,0.2-1l0.2-0.9l1.3-1.4
	c0.7-0.8,1.3-1.4,1.3-1.5C35.8,0.4,35.3-0.1,35.1,0z M25.1,6.6c0,0.1,0.6,5.5,0.6,5.6c0,0,0.1,0,0.1-0.2c0.4-1.2,1.3-2.2,2-2.4
	c0.3-0.1,0.6,0,0.9,0.3c0.3,0.3,0.4,0.6,0.1,0.8c-0.1,0.1-0.2,0-0.4-0.3c-0.3-0.6-0.9-0.3-1.6,0.8c-0.7,1.1-0.9,2.4-0.3,2.4
	c0.2,0,0.7-0.4,1-0.8c0.2-0.3,0.3-0.4,0.4-0.8c0.1-0.2,0.2-0.5,0.2-0.5c0,0,0.1,0,0.2,0c0.1,0,0.1,0,0.1,0.2c0,0.2,0,0.3-0.1,0.6
	c-0.1,0.4-0.3,0.9-0.6,1.9c-0.1,0.2-0.2,0.5-0.2,0.5c-0.1,0.1-0.3,0.1-0.3,0c0-0.1,0-0.2,0.1-0.7c0.1-0.3,0.2-0.6,0.2-0.6
	c0-0.1-0.1,0-0.3,0.2c-0.5,0.4-0.9,0.6-1.2,0.5c-0.1,0-0.1,0-0.1,0.1c0,0.4,0.3,3.6,0.4,3.7c0.1,0.2,1.2,0.5,2.2,0.6
	c0.8,0.1,3,0.1,3.8,0c0.7-0.1,1.4-0.3,1.8-0.4c0.5-0.2,0.4,0,0.7-2.4c0.1-1.2,0.2-2.2,0.2-2.2c0,0-0.2,0.1-0.3,0.3
	c-0.4,0.3-0.6,0.4-0.9,0.5c-0.3,0-0.4-0.1-0.4-0.2c-0.1-0.2,0-0.4,0.4-0.8c0.4-0.5,0.5-0.6,0.5-0.7c0-0.2-0.5,0-0.8,0.4
	c-0.1,0.1-0.2,0.3-0.3,0.4c-0.2,0.3-0.6,1.2-0.8,1.8c-0.2,0.5-0.3,0.7-0.5,0.7c-0.1,0-0.2-0.1-0.2-0.2c0-0.1,0.2-0.5,0.4-1.1
	c0.2-0.4,0.3-0.7,0.3-0.7s-0.1,0.1-0.2,0.1c-0.3,0.2-0.6,0.4-0.8,0.4c-0.2,0-0.4-0.1-0.4-0.2c0-0.1,0-0.1-0.3,0.1
	c-0.5,0.2-0.7,0.2-0.7-0.3v-0.2l-0.2,0.2c-0.4,0.4-0.8,0.5-1.1,0.3c-0.2-0.1-0.2-0.4,0-1c0.3-1,0.6-1.3,0.8-1.2
	c0.1,0.1,0.1,0.2-0.1,0.7c-0.4,0.8-0.4,1.1-0.1,1c0.3-0.1,0.7-0.6,1-1.3c0.1-0.2,0.2-0.4,0.2-0.4c0.1-0.1,0.3-0.1,0.3,0.1
	c0,0.1,0,0.2-0.2,0.7c-0.2,0.4-0.2,0.6-0.2,0.8c0,0.2,0,0.2,0.1,0.2c0.2,0,0.4-0.2,0.5-0.3c0.1-0.5,1.2-3.2,1.3-3.3
	c0.1-0.1,0.1-0.1,0.2-0.1c0.1,0,0.1,0.1,0.1,0.1c0,0.1-0.1,0.3-0.2,0.6c-0.5,1.1-1.1,2.6-1.1,2.8c0,0.1,0,0.1,0,0.1
	c0.1,0,0.4-0.2,0.8-0.5c0.3-0.3,0.4-0.4,0.4-0.6c0.2-0.6,0.3-0.7,0.5-0.6c0.1,0,0.1,0.1,0.1,0.2c0,0.1,0,0.2,0,0.2
	c0,0,0.1-0.1,0.2-0.2c0.4-0.3,0.7-0.4,1-0.2c0.1,0.1,0.2,0.1,0.2,0.3c0,0.2-0.2,0.6-0.6,1.1c-0.1,0.2-0.3,0.3-0.3,0.4c0,0,0,0,0.1,0
	c0.1,0,0.9-0.6,1.1-0.8c0.1-0.1,0.2-0.9,0.4-3.3c0.2-1.7,0.3-3.2,0.3-3.2c0,0-0.1,0-0.3,0.1c-0.4,0.1-1.2,0.3-2.1,0.4
	c-1,0.1-4.6,0.1-5.6,0c-1-0.1-1.9-0.2-2.3-0.4l-0.3-0.1L25.1,6.6L25.1,6.6z M26.5,18.4c0,0,0.2,0.3,0.3,0.6l0.3,0.6l0.1,1.9l0.1,1.9
	l0.1,0.1c0.4,0.3,1.2,0.5,2.5,0.5c1.5,0,2.7-0.2,3.1-0.5l0.2-0.1l0.1-1.9l0.1-1.9l0.3-0.5c0.2-0.3,0.3-0.6,0.3-0.6
	c0,0-0.1,0-0.3,0.1c-0.6,0.2-1.9,0.4-3,0.5c-1.2,0.1-3.1-0.2-4.1-0.5C26.6,18.4,26.5,18.4,26.5,18.4C26.5,18.4,26.5,18.4,26.5,18.4z
	"/>
<path class="st0" d="M8.9,8.8L8.9,8.8C8.9,8.8,8.9,8.8,8.9,8.8C8.9,8.8,8.9,8.8,8.9,8.8L8.9,8.8c0.6,0,1.3-0.8,1.3-0.8
	C9.7,8.2,9.3,8.3,8.9,8.4C8.5,8.3,8.1,8.2,7.6,8C7.6,8,8.3,8.8,8.9,8.8z M7.4,19.6H7.1c-0.3,0-0.7,0-0.9,0H6c-0.3,0-0.4,0.1-0.4,0.1
	c-0.1,0.1-0.1,0.2,0,0.4c0.2,0.4,0.5,0.8,0.6,0.9c0.1,0.1,0.3,0.2,0.6,0.2c0.2,0,0.4-0.1,0.5-0.2c0.4-0.4,0.6-0.8,0.6-0.9
	c0-0.1,0.1-0.2,0-0.3C7.7,19.7,7.6,19.6,7.4,19.6z M2.8,8.9C2.7,9.3,3,9.8,3,9.8C3,9.4,3.1,9.2,3.2,9c0,0.5,0.1,1.1,0.6,1.6
	c0.3,0.4,1.7,1.1,2.6,0.3c0,0.1,0.1,0.3,0.1,0.4c0.1,0.5-0.1,1.2-0.1,1.2s0.7-0.8,0.7-1.5c0.5,0,1-0.4,1-0.9c0,0-0.9,0.5-1.7-0.4
	c-0.5-0.5-1.9-2-3.9-1.5c0.2,0,0.4,0.1,0.6,0.2c0,0,0,0,0,0C2.9,8.4,2.8,8.6,2.8,8.9L2.8,8.9z M4.1,8.8C5,9.3,5.9,10,6.2,10.5l0,0
	c0,0,0,0,0,0c-0.3,0.2-1,0.5-1.8-0.1C3.9,10.1,4,9.2,4.1,8.8L4.1,8.8L4.1,8.8z M11.8,19.6h-0.2c-0.2,0-0.6,0-0.9,0h-0.3
	c-0.2,0-0.3,0-0.4,0.1c-0.1,0.1-0.1,0.2,0,0.3c0.1,0.1,0.3,0.5,0.6,0.9c0.1,0.1,0.3,0.2,0.5,0.2c0.2,0,0.4-0.1,0.6-0.2
	c0.1-0.1,0.5-0.4,0.6-0.9c0.1-0.2,0-0.3,0-0.4C12.2,19.7,12,19.6,11.8,19.6z M10.8,10.9c-0.1,0.7,0.7,1.5,0.7,1.5s-0.3-0.7-0.1-1.2
	c0-0.1,0.1-0.3,0.1-0.4c0.9,0.8,2.2,0.1,2.6-0.3c0.5-0.5,0.6-1.1,0.6-1.6c0.1,0.2,0.2,0.4,0.2,0.8c0,0,0.3-0.4,0.2-0.9
	c0-0.2-0.1-0.5-0.3-0.6c0,0,0,0,0,0c0.2-0.1,0.4-0.1,0.6-0.2c-2-0.5-3.4,1-3.9,1.5C10.7,10.5,9.8,10,9.8,10
	C9.8,10.5,10.3,10.9,10.8,10.9L10.8,10.9z M11.6,10.5L11.6,10.5c0.4-0.5,1.2-1.2,2.1-1.7c0.1,0.4,0.2,1.3-0.3,1.7
	C12.6,11,11.9,10.7,11.6,10.5L11.6,10.5z M16.3,14.9c-0.1,0.8-0.6,1.6-1.2,2.1c-0.1-1.1-0.2-2.6-0.2-2.9c0-0.7,0.4-1.1,0.6-1.2
	c0.1-0.1,0.3-0.1,0.4-0.2c0.8-0.5,1.9-1,1.9-2.1c0-0.8-0.4-1.1-0.7-1.3c0,0-0.1-0.1-0.1-0.1c-0.1-0.1-0.2-0.1-0.2-0.2
	c-0.2-0.5-0.2-1.6-0.1-1.8c0,0,0.8-1,0.6-1.8c-0.1-0.3-0.3-0.6-0.7-0.8c-0.2-0.1-0.6-0.2-0.9-0.2c0-0.1,0-0.2,0-0.3
	c0-0.1-0.1-0.2,0-0.4c0-0.2,0-0.4,0.1-0.5C16.1,2.5,17,2.3,17,2.3l0.6-0.1l-0.4-0.4c0,0-0.8-0.8-2.2-0.8c-0.4,0-0.8,0.1-1.1,0.2
	c-1.1,0.4-2,1.4-2.3,1.8c-0.1,0-0.3-0.1-0.4-0.1C11,2.1,11.6,1,11.6,1S11,0.9,10,1.7C9.9,1.4,9.6,0.8,9.9,0C8.6,0.5,8.2,1.2,8.1,1.9
	C7.8,1.7,7.8,0.8,7.8,0.6c-0.4,0-1.4,1-1.3,2.3C6.4,2.9,6.3,2.9,6.2,3C5.9,2.5,5,1.5,3.9,1.1C3.5,1,3.1,0.9,2.7,0.9
	c-1.4,0-2.2,0.8-2.2,0.8L0.2,2.2l0.6,0.1c0,0,1,0.2,1.4,0.8c0.1,0.1,0.1,0.3,0.1,0.5c0,0.1,0,0.3,0,0.4c0,0.1,0,0.2,0,0.3
	c-0.4,0-0.7,0.1-0.9,0.2C0.9,4.7,0.6,5,0.6,5.3C0.3,6.2,1.1,7.1,1.1,7.2C1.2,7.3,1.2,8.5,1,8.9C1,9,0.9,9.1,0.8,9.1
	c0,0-0.1,0.1-0.1,0.1C0.4,9.4,0,9.8,0,10.5c0,1,1.1,1.6,1.9,2.1c0.1,0.1,0.3,0.1,0.4,0.2c0.1,0.1,0.6,0.5,0.6,1.2
	c0,0.3,0,1.9-0.2,2.9c-0.5-0.5-1-1.2-1.2-2.1c0,0-1.4,1.1-1,3.3c0.4,2.1,2,2.8,4,2.9C5.2,22.6,6.2,24,8.9,24l0,0c0,0,0,0,0,0
	s0,0,0,0l0,0c2.7,0,3.7-1.4,4.4-2.9c1.9-0.2,3.6-0.9,4-2.9C17.6,15.9,16.3,14.9,16.3,14.9L16.3,14.9z M14.2,1.8
	c0.3-0.1,0.5-0.1,0.8-0.1c0.5,0,0.9,0.1,1.2,0.2c-0.1,0.1-0.3,0.1-0.5,0.2c-0.1,0-0.3,0-0.4,0c-0.5,0-1,0.1-1.3,0.4
	c-0.6,0.4-0.8,0.8-1,1c-0.1-0.1-0.2-0.1-0.3-0.2c-0.1,0-0.1-0.1-0.2-0.1C12.8,2.9,13.4,2,14.2,1.8L14.2,1.8z M15.2,2.6
	c0,0-0.1,0.1-0.1,0.2C15,3,14.9,3.3,14.9,3.6c0,0.3,0,0.6-0.2,0.8c-0.2,0-0.4,0.1-0.5,0.1c-0.1-0.1-0.3-0.3-0.5-0.5
	c0.1-0.2,0.3-0.8,0.6-1.1C14.6,2.7,14.9,2.6,15.2,2.6L15.2,2.6z M2,2.1C1.9,2,1.7,1.9,1.6,1.9c0.2-0.1,0.6-0.2,1.2-0.2
	c0.3,0,0.6,0,0.8,0.1C4.4,2,5.1,2.9,5.3,3.3c-0.1,0-0.1,0.1-0.2,0.1C5,3.4,4.9,3.5,4.8,3.6c-0.1-0.3-0.4-0.6-1-1
	C3.4,2.2,3,2.1,2.5,2.1C2.3,2.1,2.2,2.1,2,2.1L2,2.1z M4.1,4C3.9,4.2,3.7,4.4,3.6,4.5c-0.2,0-0.3-0.1-0.5-0.1L2.6,2.6
	c0.3,0,0.7,0.1,0.9,0.3L4.1,4L4.1,4z M2.6,12.2C2.5,12.1,2.4,12,2.2,12c-0.7-0.4-1.4-0.8-1.4-1.4C0.8,10,1,9.9,1.2,9.7l0.1-0.1
	c0,0.4-0.1,0.7-0.1,0.7c0,0,0.6-0.7,0.7-2.1c0.1-0.5-0.1-1.6-0.2-2c0,0.2,0,0.5,0,0.7c0,0,0-0.1-0.1-0.1C1.5,6.6,1.1,5.9,1.2,5.5
	c0-0.2,0.1-0.3,0.3-0.4C1.7,5,1.9,5,2.2,5c0.6,0,1.2,0.2,1.5,0.3c1.2,0.4,2.6,1.4,3,1.8c0,0,0,0,0,0l0.3,0.2L6.9,7
	c0,0-0.9-1.5-2.5-2.2c0.1-0.1,0.3-0.4,1-0.7c1-0.5,2.2-0.7,3.5-0.7c1.3,0,2.5,0.2,3.5,0.7c0.7,0.3,0.9,0.6,1,0.7
	C11.8,5.5,10.9,7,10.9,7l-0.2,0.3L11,7.1c0,0,0,0,0,0c0.4-0.3,1.8-1.4,3-1.8C14.4,5.2,15,5,15.6,5c0.3,0,0.5,0,0.7,0.1
	c0.2,0.1,0.3,0.2,0.3,0.4c0.1,0.4-0.3,1.1-0.4,1.2c0,0,0,0.1-0.1,0.1c0-0.2,0-0.4,0-0.7c-0.2,0.4-0.3,1.5-0.2,2
	c0.2,1.4,0.7,2.1,0.7,2.1c0-0.1-0.1-0.4-0.1-0.7c0,0,0.1,0.1,0.1,0.1l0,0C16.8,9.9,17,10,17,10.5c0,0.7-0.7,1.1-1.4,1.4
	c-0.1,0.1-0.3,0.1-0.4,0.2c-0.4,0.2-0.8,0.8-0.9,1.6c0,0.7,0,2.3,0.2,3.6c-0.6,0.2-1.3,0.3-1.9,0.3c-0.1-0.2-0.2-0.4-0.3-0.6
	c0-0.1-0.9-2.4-1.2-2.9c0.3,1.8,0.8,3.5,1.1,4.2c-0.2,0-0.3,0-0.6,0c0,0-1.9,0-2.7,0c0,0,0,0,0,0c0,0,0,0,0,0c-0.8,0-2.7,0-2.7,0
	c-0.2,0-0.4,0-0.5,0c0.3-0.7,0.8-2.4,1.1-4.2C6.4,14.7,5.5,17,5.5,17c-0.1,0.2-0.2,0.4-0.3,0.6c-0.6,0-1.3-0.1-1.9-0.3
	c0.1-1.2,0.2-2.9,0.2-3.6C3.5,13,3,12.4,2.6,12.2L2.6,12.2z M4.5,18.8C4.5,18.8,4.5,18.8,4.5,18.8c-0.4,0.4-0.5,0.9-0.3,1.6
	c-1.1,0-2.2-0.5-2.7-1.4C1,18,1.1,16.4,1.4,16.2c0.5,1.6,2.2,2.1,3.5,2.1C4.7,18.5,4.6,18.7,4.5,18.8z M12.9,20.3
	c-0.3,0.9-1.1,3-4,3c-2.8,0-3.7-2.1-4-3c-0.2-0.5-0.2-0.9,0-1.1c0.1-0.2,0.4-0.3,1.2-0.3h0.7c0.5,0,1.2,0,2,0s1.5,0,2,0h0.7
	c0.7,0,1,0.2,1.2,0.3C13,19.5,13.1,19.8,12.9,20.3L12.9,20.3z M16.3,19c-0.6,0.9-1.7,1.4-2.7,1.4c0.2-0.6,0.1-1.1-0.2-1.5
	c0,0,0,0-0.1-0.1c-0.1-0.1-0.2-0.3-0.3-0.5c1.3-0.1,3-0.5,3.5-2.1C16.7,16.4,16.8,18,16.3,19L16.3,19z"/>
</svg>
