<svg xmlns="http://www.w3.org/2000/svg" id="Layer_1" viewBox="0 0 35.8 24">
  <style>
    .st0{fill:#E4423F;}
  </style>
  <path d="M35.1 0l-1.5 1.5L32.2 3l-.6 2.2H30c-3 .1-4.7.3-5 .7 0 .2 0 .2.1.3.7.6 6.9.8 9.7.3 1-.2 1.3-.4.7-.7-.4-.2-1.9-.4-2.6-.4-.2 0-.2 0-.2-.1l.2-1 .2-.9L34.4 2c.7-.8 1.3-1.4 1.3-1.5.1-.1-.4-.6-.6-.5zm-10 6.6c0 .1.6 5.5.6 5.6 0 0 .1 0 .1-.2.4-1.2 1.3-2.2 2-2.4.3-.1.6 0 .9.3.3.3.4.6.1.8-.1.1-.2 0-.4-.3-.3-.6-.9-.3-1.6.8-.7 1.1-.9 2.4-.3 2.4.2 0 .7-.4 1-.8.2-.3.3-.4.4-.8.1-.2.2-.5.2-.5h.2c.1 0 .1 0 .1.2s0 .3-.1.6c-.1.4-.3.9-.6 1.9-.1.2-.2.5-.2.5-.1.1-.3.1-.3 0s0-.2.1-.7l.2-.6c0-.1-.1 0-.3.2-.5.4-.9.6-1.2.5-.1 0-.1 0-.1.1 0 .4.3 3.6.4 3.7.1.2 1.2.5 2.2.6.8.1 3 .1 3.8 0 .7-.1 1.4-.3 1.8-.4.5-.2.4 0 .7-2.4.1-1.2.2-2.2.2-2.2s-.2.1-.3.3c-.4.3-.6.4-.9.5-.3 0-.4-.1-.4-.2-.1-.2 0-.4.4-.8.4-.5.5-.6.5-.7 0-.2-.5 0-.8.4-.1.1-.2.3-.3.4-.2.3-.6 1.2-.8 1.8-.2.5-.3.7-.5.7-.1 0-.2-.1-.2-.2s.2-.5.4-1.1c.2-.4.3-.7.3-.7s-.1.1-.2.1c-.3.2-.6.4-.8.4-.2 0-.4-.1-.4-.2s0-.1-.3.1c-.5.2-.7.2-.7-.3v-.2l-.2.2c-.4.4-.8.5-1.1.3-.2-.1-.2-.4 0-1 .3-1 .6-1.3.8-1.2.1.1.1.2-.1.7-.4.8-.4 1.1-.1 1 .3-.1.7-.6 1-1.3l.2-.4c.1-.1.3-.1.3.1 0 .1 0 .2-.2.7-.2.4-.2.6-.2.8 0 .2 0 .2.1.2.2 0 .4-.2.5-.3.1-.5 1.2-3.2 1.3-3.3.1-.1.1-.1.2-.1s.1.1.1.1c0 .1-.1.3-.2.6-.5 1.1-1.1 2.6-1.1 2.8v.1c.1 0 .4-.2.8-.5.3-.3.4-.4.4-.6.2-.6.3-.7.5-.6.1 0 .1.1.1.2v.2l.2-.2c.4-.3.7-.4 1-.2.1.1.2.1.2.3 0 .2-.2.6-.6 1.1-.1.2-.3.3-.3.4h.1c.1 0 .9-.6 1.1-.8.1-.1.2-.9.4-3.3.2-1.7.3-3.2.3-3.2s-.1 0-.3.1c-.4.1-1.2.3-2.1.4-1 .1-4.6.1-5.6 0s-1.9-.2-2.3-.4l-.3-.1h.2zm1.4 11.8s.2.3.3.6l.3.6.1 1.9.1 1.9.1.1c.4.3 1.2.5 2.5.5 1.5 0 2.7-.2 3.1-.5l.2-.1.1-1.9.1-1.9.3-.5c.2-.3.3-.6.3-.6s-.1 0-.3.1c-.6.2-1.9.4-3 .5-1.2.1-3.1-.2-4.1-.5 0-.2-.1-.2-.1-.2zM8.9 8.8c.6 0 1.3-.8 1.3-.8-.5.2-.9.3-1.3.4-.4-.1-.8-.2-1.3-.4 0 0 .7.8 1.3.8zM7.4 19.6H6c-.3 0-.4.1-.4.1-.1.1-.1.2 0 .4.2.4.5.8.6.9.1.1.3.2.6.2.2 0 .4-.1.5-.2.4-.4.6-.8.6-.9 0-.1.1-.2 0-.3-.2-.1-.3-.2-.5-.2zM2.8 8.9c-.1.4.2.9.2.9 0-.4.1-.6.2-.8 0 .5.1 1.1.6 1.6.3.4 1.7 1.1 2.6.3 0 .1.1.3.1.4.1.5-.1 1.2-.1 1.2s.7-.8.7-1.5c.5 0 1-.4 1-.9 0 0-.9.5-1.7-.4-.5-.5-1.9-2-3.9-1.5.2 0 .4.1.6.2-.2 0-.3.2-.3.5zm1.3-.1c.9.5 1.8 1.2 2.1 1.7-.3.2-1 .5-1.8-.1-.5-.3-.4-1.2-.3-1.6zm7.7 10.8H10.4c-.2 0-.3 0-.4.1-.1.1-.1.2 0 .3.1.1.3.5.6.9.1.1.3.2.5.2s.4-.1.6-.2c.1-.1.5-.4.6-.9.1-.2 0-.3 0-.4-.1.1-.3 0-.5 0zm-1-8.7c-.1.7.7 1.5.7 1.5s-.3-.7-.1-1.2c0-.1.1-.3.1-.4.9.8 2.2.1 2.6-.3.5-.5.6-1.1.6-1.6.1.2.2.4.2.8 0 0 .3-.4.2-.9 0-.2-.1-.5-.3-.6.2-.1.4-.1.6-.2-2-.5-3.4 1-3.9 1.5-.8 1-1.7.5-1.7.5 0 .5.5.9 1 .9zm.8-.4c.4-.5 1.2-1.2 2.1-1.7.1.4.2 1.3-.3 1.7-.8.5-1.5.2-1.8 0zm4.7 4.4c-.1.8-.6 1.6-1.2 2.1-.1-1.1-.2-2.6-.2-2.9 0-.7.4-1.1.6-1.2.1-.1.3-.1.4-.2.8-.5 1.9-1 1.9-2.1 0-.8-.4-1.1-.7-1.3l-.1-.1c-.1-.1-.2-.1-.2-.2-.2-.5-.2-1.6-.1-1.8 0 0 .8-1 .6-1.8-.1-.3-.3-.6-.7-.8-.2-.1-.6-.2-.9-.2v-.3c0-.1-.1-.2 0-.4 0-.2 0-.4.1-.5.3-.7 1.2-.9 1.2-.9l.6-.1-.4-.4S16.4 1 15 1c-.4 0-.8.1-1.1.2-1.1.4-2 1.4-2.3 1.8-.1 0-.3-.1-.4-.1-.2-.8.4-1.9.4-1.9s-.6-.1-1.6.7c-.1-.3-.4-.9-.1-1.7-1.3.5-1.7 1.2-1.8 1.9-.3-.2-.3-1.1-.3-1.3-.4 0-1.4 1-1.3 2.3-.1 0-.2 0-.3.1-.3-.5-1.2-1.5-2.3-1.9C3.5 1 3.1.9 2.7.9 1.3.9.5 1.7.5 1.7l-.3.5.6.1s1 .2 1.4.8c.1.1.1.3.1.5v.7c-.4 0-.7.1-.9.2-.5.2-.8.5-.8.8-.3.9.5 1.8.5 1.9.1.1.1 1.3-.1 1.7 0 .1-.1.2-.2.2l-.1.1c-.3.2-.7.6-.7 1.3 0 1 1.1 1.6 1.9 2.1.1.1.3.1.4.2.1.1.6.5.6 1.2 0 .3 0 1.9-.2 2.9-.5-.5-1-1.2-1.2-2.1 0 0-1.4 1.1-1 3.3.4 2.1 2 2.8 4 2.9.7 1.6 1.7 3 4.4 3s3.7-1.4 4.4-2.9c1.9-.2 3.6-.9 4-2.9.3-2.3-1-3.3-1-3.3zM14.2 1.8c.3-.1.5-.1.8-.1.5 0 .9.1 1.2.2-.1.1-.3.1-.5.2h-.4c-.5 0-1 .1-1.3.4-.6.4-.8.8-1 1-.1-.1-.2-.1-.3-.2-.1 0-.1-.1-.2-.1.3-.3.9-1.2 1.7-1.4zm1 .8s-.1.1-.1.2c-.1.2-.2.5-.2.8 0 .3 0 .6-.2.8-.2 0-.4.1-.5.1l-.5-.5c.1-.2.3-.8.6-1.1.3-.2.6-.3.9-.3zM2 2.1c-.1-.1-.3-.2-.4-.2.2-.1.6-.2 1.2-.2.3 0 .6 0 .8.1.8.2 1.5 1.1 1.7 1.5-.1 0-.1.1-.2.1s-.2.1-.3.2c-.1-.3-.4-.6-1-1-.4-.4-.8-.5-1.3-.5H2zM4.1 4l-.5.5c-.2 0-.3-.1-.5-.1l-.5-1.8c.3 0 .7.1.9.3L4.1 4zm-1.5 8.2c-.1-.1-.2-.2-.4-.2-.7-.4-1.4-.8-1.4-1.4 0-.6.2-.7.4-.9l.1-.1c0 .4-.1.7-.1.7s.6-.7.7-2.1c.1-.5-.1-1.6-.2-2v.7s0-.1-.1-.1c-.1-.2-.5-.9-.4-1.3 0-.2.1-.3.3-.4.2-.1.4-.1.7-.1.6 0 1.2.2 1.5.3 1.2.4 2.6 1.4 3 1.8l.3.2-.1-.3S6 5.5 4.4 4.8c.1-.1.3-.4 1-.7 1-.5 2.2-.7 3.5-.7 1.3 0 2.5.2 3.5.7.7.3.9.6 1 .7-1.6.7-2.5 2.2-2.5 2.2l-.2.3.3-.2c.4-.3 1.8-1.4 3-1.8.4-.1 1-.3 1.6-.3.3 0 .5 0 .7.1.2.1.3.2.3.4.1.4-.3 1.1-.4 1.2 0 0 0 .1-.1.1v-.7c-.2.4-.3 1.5-.2 2 .2 1.4.7 2.1.7 2.1 0-.1-.1-.4-.1-.7l.1.1c.2.3.4.4.4.9 0 .7-.7 1.1-1.4 1.4-.1.1-.3.1-.4.2-.4.2-.8.8-.9 1.6 0 .7 0 2.3.2 3.6-.6.2-1.3.3-1.9.3l-.3-.6c0-.1-.9-2.4-1.2-2.9.3 1.8.8 3.5 1.1 4.2h-.6-5.9c.3-.7.8-2.4 1.1-4.2-.4.6-1.3 2.9-1.3 2.9l-.3.6c-.6 0-1.3-.1-1.9-.3.1-1.2.2-2.9.2-3.6 0-.7-.5-1.3-.9-1.5zm1.9 6.6c-.4.4-.5.9-.3 1.6-1.1 0-2.2-.5-2.7-1.4-.5-1-.4-2.6-.1-2.8.5 1.6 2.2 2.1 3.5 2.1-.2.2-.3.4-.4.5zm8.4 1.5c-.3.9-1.1 3-4 3-2.8 0-3.7-2.1-4-3-.2-.5-.2-.9 0-1.1.1-.2.4-.3 1.2-.3h5.4c.7 0 1 .2 1.2.3.3.3.4.6.2 1.1zm3.4-1.3c-.6.9-1.7 1.4-2.7 1.4.2-.6.1-1.1-.2-1.5l-.1-.1c-.1-.1-.2-.3-.3-.5 1.3-.1 3-.5 3.5-2.1.2.2.3 1.8-.2 2.8z" class="st0"/>
</svg>
