<?xml version="1.0" encoding="utf-8"?>
<!-- Generator: Adobe Illustrator 19.2.1, SVG Export Plug-In . SVG Version: 6.00 Build 0)  -->
<!DOCTYPE svg PUBLIC "-//W3C//DTD SVG 1.1//EN" "http://www.w3.org/Graphics/SVG/1.1/DTD/svg11.dtd">
<svg version="1.1" id="Layer_1" xmlns="http://www.w3.org/2000/svg" xmlns:xlink="http://www.w3.org/1999/xlink" x="0px" y="0px"
	 viewBox="0 0 100 140.8" style="enable-background:new 0 0 100 140.8;" xml:space="preserve">
<style type="text/css">
	.st0{fill:#e4423f;}
</style>
<path class="st0" d="M0,27.6h100l-9.4,101.6L50,140.8L9.3,129.2L0,27.6z M9.3,19V0h6.4v6.3h5.7V0h6.3v19h-6.3v-6.3h-5.7V19H9.3z
	 M18.6,48.4l3.4,38l0.1-0.3H65l-1.4,16.2l-13.7,3.9l-13.9-4l-0.9-9.7H22.6l1.7,19.5l25.6,7.3l25.6-7.3l3.6-38.2H33.5l-1.1-12.7h47.9
	l1.1-12.6L18.6,48.4L18.6,48.4z M30.6,6.4V0h17.5v6.4h-5.6V19h-6.3V6.4H30.6z M50.8,19V0h6.7l3.9,6.6l4-6.6h6.7v19H66V9.3l-4.6,7.2
	v-0.1l-4.3-6.7V19H50.8z M75.4,19V0h6.3v12.6h8.9V19H75.4z"/>
</svg>
