<?xml version="1.0" encoding="utf-8"?>
<!-- Generator: Adobe Illustrator 19.2.1, SVG Export Plug-In . SVG Version: 6.00 Build 0)  -->
<!DOCTYPE svg PUBLIC "-//W3C//DTD SVG 1.1//EN" "http://www.w3.org/Graphics/SVG/1.1/DTD/svg11.dtd">
<svg version="1.1" id="Layer_1" xmlns="http://www.w3.org/2000/svg" xmlns:xlink="http://www.w3.org/1999/xlink" x="0px" y="0px"
	 viewBox="0 0 100 140.8" style="enable-background:new 0 0 100 140.8;" xml:space="preserve">
<style type="text/css">
	.st0{fill:#e4423f;}
</style>
<g>
	<polygon class="st0" points="67.5,5.3 59.4,5.3 67.9,14.6 67.9,18.9 50.3,18.9 50.3,13.8 58.8,13.8 50.3,4.6 50.3,0.2 67.5,0.2
		"/>
	<path class="st0" d="M47.2,0.2v18.7H32.1v-6.2H41V0.2H47.2L47.2,0.2z"/>
</g>
<path class="st0" d="M0,27.6l9.3,101.6l40.6,11.6l40.6-11.6L100,27.6H0z M38.5,60.5l-1.6,17.8h14v0h21.7h3.1l-0.3,3l-2.7,29.8
	l-0.2,1.9l-23.2,6.4v0l-0.1,0L26,113.1l-1.6-17.8h5.2h6.1l0.8,9l12.6,3.4l0,0v0l12.6-3.4l1.3-14.7h-14v0H27.5h-3.1l0.3-3l2.7-29.8
	l0.8-8.4h21.3h1.2l0,0l0.1,0h22.6l0.5,6.4l1.6,17.8h-5.2h-6.1l-1.1-11.7l-11.6-0.7h-2.1v0L38.5,60.5z"/>
</svg>
