<svg xmlns="http://www.w3.org/2000/svg" width="464.812" height="158.897" viewBox="0 0 122.98142 42.041423">
  <g fill="#e4423f">
    <path d="M14.404 14.388L19.3 9.49v9.79zM5.29 5.29v17.476l1.57.01V9.562l14.147 14.147V5.293l-7.865 7.865zm112.4 6.06v12.7h-1.27v-12.7zm-2.87 10.236c.34.78.508 1.6.508 2.463h-1.295c0-.712-.136-1.372-.407-1.982-.254-.61-.61-1.143-1.067-1.6-.238-.237-.492-.44-.763-.61-.27-.17-.55-.32-.838-.457-.323-.15-.653-.253-.99-.304-.323-.067-.653-.1-.992-.1-.34 0-.677.033-1.016.1-.34.05-.66.153-.965.305-.305.137-.593.29-.864.458-.254.17-.5.373-.736.61-.475.44-.84.974-1.093 1.6-.237.56-.372 1.177-.406 1.854v.127h-1.27V11.348h1.27v8.127l10.363-8.128.814 1.015-6.91 5.385c.137-.017.272-.025.408-.025.135-.017.27-.026.406-.026.83 0 1.65.17 2.464.507.372.153.728.348 1.067.585.337.22.65.474.938.762.288.288.55.6.788.94.237.338.432.702.584 1.092zm-15.99.787c.66-.288 1.193-.66 1.6-1.118l.914.915c-.288.305-.6.567-.94.787-.34.22-.694.415-1.067.584-.813.34-1.634.51-2.464.51-.846 0-1.676-.17-2.49-.51-.37-.168-.727-.363-1.066-.583-.32-.22-.635-.482-.94-.787-.287-.288-.55-.6-.787-.94-.22-.34-.415-.686-.584-1.04-.322-.763-.483-1.593-.483-2.49 0-.898.16-1.728.483-2.49.322-.728.78-1.388 1.37-1.98.61-.61 1.28-1.068 2.008-1.373.813-.338 1.643-.508 2.49-.508.83 0 1.65.17 2.463.507.762.322 1.43.78 2.007 1.372l-.915.888c-.407-.44-.932-.804-1.576-1.092-.643-.254-1.303-.38-1.98-.38-.695 0-1.355.126-1.982.38-.305.135-.593.296-.864.482-.27.17-.516.373-.736.61-.237.237-.45.49-.635.762-.17.254-.322.533-.457.838-.254.644-.38 1.304-.38 1.98 0 .696.126 1.356.38 1.983.254.593.618 1.118 1.092 1.575.22.238.466.45.736.635.27.187.56.348.864.483.627.254 1.287.38 1.98.38.696 0 1.347-.126 1.957-.38zM82.882 11.35c.88 0 1.702.17 2.464.507.78.322 1.457.77 2.032 1.347.575.575 1.032 1.253 1.37 2.032.34.762.51 1.583.51 2.463 0 .88-.17 1.71-.51 2.49-.338.76-.795 1.43-1.37 2.005-.576.576-1.254 1.033-2.033 1.372-.762.322-1.583.482-2.464.482-.88 0-1.71-.16-2.49-.483-.76-.34-1.43-.796-2.005-1.372-.576-.575-1.033-1.244-1.372-2.006-.322-.78-.483-1.61-.483-2.49 0-.88.16-1.702.483-2.464.34-.78.796-1.457 1.372-2.032.575-.576 1.244-1.025 2.006-1.347.78-.338 1.61-.508 2.49-.508zm3.607 9.93c.457-.49.813-1.032 1.067-1.625.27-.677.406-1.33.406-1.956 0-.66-.135-1.313-.406-1.956-.135-.322-.296-.61-.483-.864-.17-.27-.364-.525-.584-.762-.237-.237-.49-.44-.762-.61-.27-.186-.567-.347-.89-.482-.608-.254-1.26-.38-1.955-.38-.677 0-1.33.126-1.955.38-.61.254-1.152.618-1.626 1.092-.237.237-.45.49-.635.762-.17.254-.322.542-.457.864-.254.61-.38 1.26-.38 1.955 0 .677.126 1.33.38 1.955.254.61.618 1.152 1.092 1.626.474.475 1.016.84 1.626 1.093.626.254 1.278.38 1.955.38.695 0 1.347-.126 1.956-.38.32-.135.617-.288.888-.457.27-.186.525-.398.762-.635zm-11.66-9.448c.745.322 1.414.78 2.007 1.372l-.915.914c-.44-.474-.973-.838-1.6-1.092-.643-.27-1.295-.407-1.956-.407-.338 0-.677.033-1.016.1-.32.07-.643.162-.965.28-.288.136-.567.297-.838.483-.27.186-.525.398-.762.635s-.45.49-.635.762c-.17.254-.322.533-.457.838-.237.56-.373 1.177-.407 1.854v6.477h-1.27V11.348h1.27v2.514c.203-.254.407-.474.61-.66.288-.288.593-.542.914-.762.34-.237.695-.44 1.067-.61.796-.322 1.626-.483 2.49-.483.88 0 1.7.16 2.463.482zm-16.454-.483c.88 0 1.702.17 2.464.507.78.322 1.456.77 2.032 1.347.576.575 1.025 1.253 1.346 2.032.34.762.508 1.583.508 2.463 0 .88-.17 1.71-.508 2.49-.32.76-.77 1.43-1.346 2.005-.576.576-1.253 1.033-2.032 1.372-.762.322-1.583.482-2.464.482-1.05 0-2.015-.23-2.895-.686-.863-.474-1.59-1.093-2.184-1.855v15.24h-1.27V17.7c0-.88.16-1.702.483-2.464.338-.78.795-1.457 1.37-2.032.576-.576 1.245-1.025 2.007-1.347.78-.338 1.61-.508 2.49-.508zm3.607 9.956c.44-.525.796-1.067 1.067-1.625.135-.338.237-.668.305-.99.068-.322.1-.652.1-.99 0-.644-.134-1.304-.405-1.982-.288-.61-.643-1.143-1.067-1.6-.474-.474-1.016-.838-1.625-1.092-.678-.27-1.338-.407-1.982-.407-.643 0-1.303.135-1.98.406-.29.135-.568.296-.84.482-.27.17-.524.373-.76.61-.238.237-.45.49-.636.762-.17.254-.322.533-.457.838-.27.678-.407 1.338-.407 1.98 0 .34.034.67.102.992.068.322.17.652.305.99.135.29.288.568.457.84.186.27.398.532.635.786.237.22.49.424.762.61.27.17.55.322.838.457.627.254 1.287.38 1.98.38.68 0 1.34-.126 1.983-.38.592-.27 1.134-.626 1.625-1.067zm-11.246-3.43v6.173H49.44v-2.54c-.575.76-1.303 1.38-2.183 1.854-.864.457-1.82.685-2.87.685-.88 0-1.71-.16-2.49-.483-.762-.34-1.43-.796-2.006-1.372-.575-.575-1.032-1.244-1.37-2.006-.323-.78-.483-1.61-.483-2.49 0-.88.16-1.702.482-2.464.338-.78.795-1.457 1.37-2.032.577-.576 1.245-1.025 2.007-1.347.78-.338 1.61-.508 2.49-.508.88 0 1.7.17 2.463.507.78.322 1.457.77 2.032 1.347.576.575 1.025 1.253 1.347 2.032.337.762.507 1.583.507 2.463zm-1.677 1.805c.12-.287.212-.584.28-.888.067-.305.1-.618.1-.94V17.7c0-.678-.126-1.338-.38-1.982-.135-.305-.296-.592-.482-.863-.17-.27-.373-.508-.61-.712-.22-.237-.466-.448-.737-.635-.27-.186-.557-.347-.862-.482-.644-.254-1.304-.38-1.98-.38-.696 0-1.356.126-1.983.38-.643.288-1.176.66-1.6 1.117-.237.204-.45.44-.635.712-.17.27-.322.558-.457.863-.254.644-.38 1.304-.38 1.98 0 .696.126 1.356.38 1.983.288.627.652 1.16 1.092 1.6.44.44.974.805 1.6 1.093.322.136.644.237.966.305.34.05.678.076 1.017.076.338 0 .668-.025.99-.076.34-.068.67-.17.99-.305.306-.135.593-.288.864-.457.272-.186.518-.398.738-.635.44-.44.804-.973 1.092-1.6zm-18.663-8.33c.88 0 1.702.17 2.464.507.78.322 1.457.77 2.033 1.347.575.575 1.024 1.253 1.346 2.032.337.762.507 1.583.507 2.463 0 .88-.17 1.71-.508 2.49-.323.76-.772 1.43-1.347 2.005-.576.576-1.254 1.033-2.032 1.372-.76.322-1.583.482-2.463.482-1.05 0-2.015-.23-2.896-.686-.862-.474-1.59-1.093-2.183-1.855v15.24h-1.27V17.7c0-.88.16-1.702.482-2.464.338-.78.795-1.457 1.37-2.032.577-.576 1.246-1.025 2.008-1.347.778-.338 1.608-.508 2.49-.508zm3.607 9.956c.44-.525.795-1.067 1.066-1.625.136-.338.237-.668.305-.99.068-.322.102-.652.102-.99 0-.644-.136-1.304-.407-1.982-.288-.61-.643-1.143-1.066-1.6-.475-.474-1.016-.838-1.626-1.092-.677-.27-1.338-.407-1.98-.407-.645 0-1.305.135-1.982.406-.288.135-.568.296-.84.482-.27.17-.524.373-.76.61-.238.237-.45.49-.636.762-.17.254-.32.533-.457.838-.27.678-.406 1.338-.406 1.98 0 .34.034.67.1.992.07.322.17.652.306.99.136.29.288.568.457.84.187.27.398.532.635.786.237.22.49.424.762.61.27.17.55.322.84.457.625.254 1.285.38 1.98.38.677 0 1.337-.126 1.98-.38.594-.27 1.135-.626 1.627-1.067z"/>
  </g>
</svg>
