<?xml version="1.0" encoding="UTF-8" standalone="no"?>
<!-- Created with Inkscape (http://www.inkscape.org/) -->

<svg
   xmlns:dc="http://purl.org/dc/elements/1.1/"
   xmlns:cc="http://creativecommons.org/ns#"
   xmlns:rdf="http://www.w3.org/1999/02/22-rdf-syntax-ns#"
   xmlns:svg="http://www.w3.org/2000/svg"
   xmlns="http://www.w3.org/2000/svg"
   xmlns:sodipodi="http://sodipodi.sourceforge.net/DTD/sodipodi-0.dtd"
   xmlns:inkscape="http://www.inkscape.org/namespaces/inkscape"
   width="464.81168"
   height="329.2113"
   viewBox="0 0 122.98142 87.103826"
   version="1.1"
   id="svg4769"
   inkscape:version="0.92.1 unknown"
   sodipodi:docname="logo_mpaprocki-regular.svg">
  <defs
     id="defs4763" />
  <sodipodi:namedview
     id="base"
     pagecolor="#ffffff"
     bordercolor="#666666"
     borderopacity="1.0"
     inkscape:pageopacity="0.0"
     inkscape:pageshadow="2"
     inkscape:zoom="1.4"
     inkscape:cx="205.91196"
     inkscape:cy="163.80404"
     inkscape:document-units="mm"
     inkscape:current-layer="layer1"
     showgrid="false"
     units="px"
     inkscape:measure-start="0,0"
     inkscape:measure-end="0,0"
     inkscape:window-width="1920"
     inkscape:window-height="1017"
     inkscape:window-x="0"
     inkscape:window-y="30"
     inkscape:window-maximized="1"
     fit-margin-top="20"
     fit-margin-left="20"
     fit-margin-right="20"
     fit-margin-bottom="20" />
  <metadata
     id="metadata4766">
    <rdf:RDF>
      <cc:Work
         rdf:about="">
        <dc:format>image/svg+xml</dc:format>
        <dc:type
           rdf:resource="http://purl.org/dc/dcmitype/StillImage" />
        <dc:title></dc:title>
      </cc:Work>
    </rdf:RDF>
  </metadata>
  <g
     inkscape:label="Layer 1"
     inkscape:groupmode="layer"
     id="layer1"
     transform="translate(-44.34262,-190.62127)">
    <path
       id="path4752"
       style="fill:#000000;fill-opacity:1;stroke:none;stroke-width:0.59850115px;stroke-linecap:butt;stroke-linejoin:miter;stroke-opacity:1"
       d="m 108.49319,215.20205 10.38424,-10.38426 v 20.75705 z M 89.170407,195.91294 v 37.0552 l 3.327546,0.0228 v -28.02485 l 29.998307,29.99831 v -39.04783 l -16.67886,16.67887 z"
       inkscape:connector-curvature="0"
       sodipodi:nodetypes="cccccccccccc" />
    <g
       aria-label="paprocki"
       style="font-style:normal;font-variant:normal;font-weight:normal;font-stretch:normal;font-size:22.57777786px;line-height:1.25;font-family:'Abyssinica SIL';-inkscape-font-specification:'Abyssinica SIL';letter-spacing:0px;word-spacing:0px;fill:#e4423f;fill-opacity:1;stroke:none;stroke-width:0.26458332"
       id="text4779" />
    <path
       id="path4752-3"
       style="fill:#e4423f;fill-opacity:1;stroke:none;stroke-width:0.28224254px;stroke-linecap:butt;stroke-linejoin:miter;stroke-opacity:1"
       d="m 58.746567,250.07174 4.897022,-4.89703 v 9.78867 z m -9.11228,-9.0964 v 17.47457 l 1.569211,0.0109 v -13.2162 l 14.146668,14.14667 V 240.977 l -7.86545,7.86546 z m 112.398093,6.05809 v 12.7 h -1.27 v -12.7 z m -2.8694,10.2362 c 0.33867,0.77893 0.508,1.6002 0.508,2.4638 h -1.2954 c 0,-0.7112 -0.13547,-1.3716 -0.4064,-1.9812 -0.254,-0.6096 -0.6096,-1.143 -1.0668,-1.6002 -0.23707,-0.23707 -0.49107,-0.44027 -0.762,-0.6096 -0.27093,-0.16933 -0.55033,-0.32173 -0.8382,-0.4572 -0.32173,-0.1524 -0.65193,-0.254 -0.9906,-0.3048 -0.32173,-0.0677 -0.65193,-0.1016 -0.9906,-0.1016 -0.33867,0 -0.67733,0.0339 -1.016,0.1016 -0.33867,0.0508 -0.6604,0.1524 -0.9652,0.3048 -0.3048,0.13547 -0.59267,0.28787 -0.8636,0.4572 -0.254,0.16933 -0.49953,0.37253 -0.7366,0.6096 -0.47413,0.44027 -0.8382,0.97367 -1.0922,1.6002 -0.23707,0.5588 -0.37253,1.17687 -0.4064,1.8542 v 0.127 h -1.27 v -0.127 -12.573 h 1.27 v 8.128 l 10.3632,-8.128 0.8128,1.016 -6.9088,5.3848 c 0.13547,-0.0169 0.27093,-0.0254 0.4064,-0.0254 0.13547,-0.0169 0.27093,-0.0254 0.4064,-0.0254 0.82973,0 1.651,0.16933 2.4638,0.508 0.37253,0.1524 0.72813,0.34713 1.0668,0.5842 0.33867,0.22013 0.65193,0.47413 0.9398,0.762 0.28787,0.28787 0.55033,0.60113 0.7874,0.9398 0.23707,0.33867 0.4318,0.70273 0.5842,1.0922 z m -15.99089,0.7874 c 0.6604,-0.28787 1.1938,-0.6604 1.6002,-1.1176 l 0.9144,0.9144 c -0.28787,0.3048 -0.60113,0.56727 -0.9398,0.7874 -0.33867,0.22013 -0.69427,0.41487 -1.0668,0.5842 -0.8128,0.33867 -1.63407,0.508 -2.4638,0.508 -0.84667,0 -1.6764,-0.16933 -2.4892,-0.508 -0.37253,-0.16933 -0.72813,-0.36407 -1.0668,-0.5842 -0.32173,-0.22013 -0.635,-0.4826 -0.9398,-0.7874 -0.28787,-0.28787 -0.55033,-0.60113 -0.7874,-0.9398 -0.22013,-0.33867 -0.41487,-0.6858 -0.5842,-1.0414 -0.32173,-0.762 -0.4826,-1.59173 -0.4826,-2.4892 0,-0.89747 0.16087,-1.7272 0.4826,-2.4892 0.32173,-0.72813 0.77893,-1.38853 1.3716,-1.9812 0.6096,-0.6096 1.27847,-1.0668 2.0066,-1.3716 0.8128,-0.33867 1.64253,-0.508 2.4892,-0.508 0.82973,0 1.651,0.16933 2.4638,0.508 0.762,0.32173 1.43087,0.77893 2.0066,1.3716 l -0.9144,0.889 c -0.4064,-0.44027 -0.93133,-0.80433 -1.5748,-1.0922 -0.64347,-0.254 -1.30387,-0.381 -1.9812,-0.381 -0.69427,0 -1.35467,0.127 -1.9812,0.381 -0.3048,0.13547 -0.59267,0.29633 -0.8636,0.4826 -0.27093,0.16933 -0.51647,0.37253 -0.7366,0.6096 -0.23707,0.23707 -0.44873,0.49107 -0.635,0.762 -0.16933,0.254 -0.32173,0.5334 -0.4572,0.8382 -0.254,0.64347 -0.381,1.30387 -0.381,1.9812 0,0.69427 0.127,1.35467 0.381,1.9812 0.254,0.59267 0.61807,1.1176 1.0922,1.5748 0.22013,0.23707 0.46567,0.44873 0.7366,0.635 0.27093,0.18627 0.5588,0.34713 0.8636,0.4826 0.62653,0.254 1.28693,0.381 1.9812,0.381 0.69427,0 1.3462,-0.127 1.9558,-0.381 z m -15.94564,-11.0236 c 0.88053,0 1.7018,0.16933 2.4638,0.508 0.77893,0.32173 1.45627,0.77047 2.032,1.3462 0.57573,0.57573 1.03293,1.25307 1.3716,2.032 0.33867,0.762 0.508,1.58327 0.508,2.4638 0,0.88053 -0.16933,1.71027 -0.508,2.4892 -0.33867,0.762 -0.79587,1.43087 -1.3716,2.0066 -0.57573,0.57573 -1.25307,1.03293 -2.032,1.3716 -0.762,0.32173 -1.58327,0.4826 -2.4638,0.4826 -0.88053,0 -1.71027,-0.16087 -2.4892,-0.4826 -0.762,-0.33867 -1.43087,-0.79587 -2.0066,-1.3716 -0.57573,-0.57573 -1.03293,-1.2446 -1.3716,-2.0066 -0.32173,-0.77893 -0.4826,-1.60867 -0.4826,-2.4892 0,-0.88053 0.16087,-1.7018 0.4826,-2.4638 0.33867,-0.77893 0.79587,-1.45627 1.3716,-2.032 0.57573,-0.57573 1.2446,-1.02447 2.0066,-1.3462 0.77893,-0.33867 1.60867,-0.508 2.4892,-0.508 z m 3.6068,9.9314 c 0.4572,-0.49107 0.8128,-1.03293 1.0668,-1.6256 0.27093,-0.67733 0.4064,-1.32927 0.4064,-1.9558 0,-0.6604 -0.13547,-1.31233 -0.4064,-1.9558 -0.13547,-0.32173 -0.29633,-0.6096 -0.4826,-0.8636 -0.16933,-0.27093 -0.36407,-0.52493 -0.5842,-0.762 -0.23707,-0.23707 -0.49107,-0.44027 -0.762,-0.6096 -0.27093,-0.18627 -0.56727,-0.34713 -0.889,-0.4826 -0.6096,-0.254 -1.26153,-0.381 -1.9558,-0.381 -0.67733,0 -1.32927,0.127 -1.9558,0.381 -0.6096,0.254 -1.15147,0.61807 -1.6256,1.0922 -0.23707,0.23707 -0.44873,0.49107 -0.635,0.762 -0.16933,0.254 -0.32173,0.54187 -0.4572,0.8636 -0.254,0.6096 -0.381,1.26153 -0.381,1.9558 0,0.67733 0.127,1.32927 0.381,1.9558 0.254,0.6096 0.61807,1.15147 1.0922,1.6256 0.47413,0.47413 1.016,0.8382 1.6256,1.0922 0.62653,0.254 1.27847,0.381 1.9558,0.381 0.69427,0 1.3462,-0.127 1.9558,-0.381 0.32173,-0.13547 0.61807,-0.28787 0.889,-0.4572 0.27093,-0.18627 0.52493,-0.39793 0.762,-0.635 z m -11.66019,-9.4488 c 0.74507,0.32173 1.41393,0.77893 2.0066,1.3716 l -0.9144,0.9144 c -0.44027,-0.47413 -0.97367,-0.8382 -1.6002,-1.0922 -0.64347,-0.27093 -1.2954,-0.4064 -1.9558,-0.4064 -0.33867,0 -0.67733,0.0339 -1.016,0.1016 -0.32173,0.0677 -0.64347,0.16087 -0.9652,0.2794 -0.28787,0.13547 -0.56727,0.29633 -0.8382,0.4826 -0.27093,0.18627 -0.52493,0.39793 -0.762,0.635 -0.23707,0.23707 -0.44873,0.49107 -0.635,0.762 -0.16933,0.254 -0.32173,0.5334 -0.4572,0.8382 -0.23707,0.5588 -0.37253,1.17687 -0.4064,1.8542 v 6.477 h -1.27 v -6.35 -0.1524 -6.1976 h 1.27 v 2.5146 c 0.2032,-0.254 0.4064,-0.47413 0.6096,-0.6604 0.28787,-0.28787 0.59267,-0.54187 0.9144,-0.762 0.33867,-0.23707 0.69427,-0.44027 1.0668,-0.6096 0.79587,-0.32173 1.6256,-0.4826 2.4892,-0.4826 0.88053,0 1.7018,0.16087 2.4638,0.4826 z m -16.45364,-0.4826 c 0.88053,0 1.7018,0.16933 2.4638,0.508 0.77893,0.32173 1.45627,0.77047 2.032,1.3462 0.57573,0.57573 1.02447,1.25307 1.3462,2.032 0.33867,0.762 0.508,1.58327 0.508,2.4638 0,0.88053 -0.16933,1.71027 -0.508,2.4892 -0.32173,0.762 -0.77047,1.43087 -1.3462,2.0066 -0.57573,0.57573 -1.25307,1.03293 -2.032,1.3716 -0.762,0.32173 -1.58327,0.4826 -2.4638,0.4826 -1.04987,0 -2.01507,-0.2286 -2.895603,-0.6858 -0.8636,-0.47413 -1.591733,-1.0922 -2.1844,-1.8542 v 15.24 h -1.27 v -19.05 c 0,-0.88053 0.160867,-1.7018 0.4826,-2.4638 0.338667,-0.77893 0.795867,-1.45627 1.3716,-2.032 0.575733,-0.57573 1.244601,-1.02447 2.006603,-1.3462 0.77893,-0.33867 1.60867,-0.508 2.4892,-0.508 z m 3.6068,9.9568 c 0.44027,-0.52493 0.79587,-1.0668 1.0668,-1.6256 0.13547,-0.33867 0.23707,-0.66887 0.3048,-0.9906 0.0677,-0.32173 0.1016,-0.65193 0.1016,-0.9906 0,-0.64347 -0.13547,-1.30387 -0.4064,-1.9812 -0.28787,-0.6096 -0.64347,-1.143 -1.0668,-1.6002 -0.47413,-0.47413 -1.016,-0.8382 -1.6256,-1.0922 -0.67733,-0.27093 -1.33773,-0.4064 -1.9812,-0.4064 -0.64347,0 -1.30387,0.13547 -1.9812,0.4064 -0.28787,0.13547 -0.56727,0.29633 -0.838203,0.4826 -0.270933,0.16933 -0.524933,0.37253 -0.762,0.6096 -0.237067,0.23707 -0.448733,0.49107 -0.635,0.762 -0.169333,0.254 -0.321733,0.5334 -0.4572,0.8382 -0.270933,0.67733 -0.4064,1.33773 -0.4064,1.9812 0,0.33867 0.03387,0.66887 0.1016,0.9906 0.06773,0.32173 0.169333,0.65193 0.3048,0.9906 0.135467,0.28787 0.287867,0.56727 0.4572,0.8382 0.186267,0.27093 0.397933,0.5334 0.635,0.7874 0.237067,0.22013 0.491067,0.42333 0.762,0.6096 0.270933,0.16933 0.550333,0.32173 0.838203,0.4572 0.62653,0.254 1.28693,0.381 1.9812,0.381 0.67733,0 1.33773,-0.127 1.9812,-0.381 0.59267,-0.27093 1.13453,-0.62653 1.6256,-1.0668 z m -11.246647,-3.429 v 6.1722 h -1.2954 v -2.54 c -0.575733,0.762 -1.303866,1.38007 -2.184399,1.8542 -0.8636,0.4572 -1.820333,0.6858 -2.8702,0.6858 -0.880533,0 -1.710267,-0.16087 -2.4892,-0.4826 -0.762,-0.33867 -1.430867,-0.79587 -2.0066,-1.3716 -0.575733,-0.57573 -1.032933,-1.2446 -1.3716,-2.0066 -0.321733,-0.77893 -0.4826,-1.60867 -0.4826,-2.4892 0,-0.88053 0.160867,-1.7018 0.4826,-2.4638 0.338667,-0.77893 0.795867,-1.45627 1.3716,-2.032 0.575733,-0.57573 1.2446,-1.02447 2.0066,-1.3462 0.778933,-0.33867 1.608667,-0.508 2.4892,-0.508 0.880533,0 1.7018,0.16933 2.4638,0.508 0.778933,0.32173 1.456266,0.77047 2.031999,1.3462 0.575733,0.57573 1.024467,1.25307 1.3462,2.032 0.338667,0.762 0.508,1.58327 0.508,2.4638 z m -1.6764,1.8034 c 0.118533,-0.28787 0.211667,-0.5842 0.2794,-0.889 0.06773,-0.3048 0.1016,-0.61807 0.1016,-0.9398 v -0.1524 c 0,-0.67733 -0.127,-1.33773 -0.381,-1.9812 -0.135467,-0.3048 -0.296333,-0.59267 -0.4826,-0.8636 -0.169333,-0.27093 -0.372533,-0.508 -0.609599,-0.7112 -0.220133,-0.23707 -0.465667,-0.44873 -0.7366,-0.635 -0.270933,-0.18627 -0.5588,-0.34713 -0.8636,-0.4826 -0.643467,-0.254 -1.303867,-0.381 -1.9812,-0.381 -0.694267,0 -1.354667,0.127 -1.9812,0.381 -0.643467,0.28787 -1.176867,0.6604 -1.6002,1.1176 -0.237067,0.2032 -0.448733,0.44027 -0.635,0.7112 -0.169333,0.27093 -0.321733,0.5588 -0.4572,0.8636 -0.254,0.64347 -0.381,1.30387 -0.381,1.9812 0,0.69427 0.127,1.35467 0.381,1.9812 0.287867,0.62653 0.651933,1.15993 1.0922,1.6002 0.440267,0.44027 0.973667,0.80433 1.6002,1.0922 0.321733,0.13547 0.643467,0.23707 0.9652,0.3048 0.338667,0.0508 0.677333,0.0762 1.016,0.0762 0.338667,0 0.668867,-0.0254 0.9906,-0.0762 0.338667,-0.0677 0.668867,-0.16933 0.9906,-0.3048 0.3048,-0.13547 0.592667,-0.28787 0.8636,-0.4572 0.270933,-0.18627 0.516467,-0.39793 0.7366,-0.635 0.440266,-0.44027 0.804332,-0.97367 1.092199,-1.6002 z m -18.663443,-8.3312 c 0.880533,0 1.7018,0.16933 2.4638,0.508 0.778933,0.32173 1.456267,0.77047 2.032,1.3462 0.575733,0.57573 1.024467,1.25307 1.3462,2.032 0.338667,0.762 0.508,1.58327 0.508,2.4638 0,0.88053 -0.169333,1.71027 -0.508,2.4892 -0.321733,0.762 -0.770467,1.43087 -1.3462,2.0066 -0.575733,0.57573 -1.253067,1.03293 -2.032,1.3716 -0.762,0.32173 -1.583267,0.4826 -2.4638,0.4826 -1.049867,0 -2.015067,-0.2286 -2.8956,-0.6858 -0.8636,-0.47413 -1.591733,-1.0922 -2.1844,-1.8542 v 15.24 h -1.27 v -19.05 c 0,-0.88053 0.160867,-1.7018 0.4826,-2.4638 0.338667,-0.77893 0.795867,-1.45627 1.3716,-2.032 0.575733,-0.57573 1.2446,-1.02447 2.0066,-1.3462 0.778933,-0.33867 1.608667,-0.508 2.4892,-0.508 z m 3.6068,9.9568 c 0.440267,-0.52493 0.795867,-1.0668 1.0668,-1.6256 0.135467,-0.33867 0.237067,-0.66887 0.3048,-0.9906 0.06773,-0.32173 0.1016,-0.65193 0.1016,-0.9906 0,-0.64347 -0.135467,-1.30387 -0.4064,-1.9812 -0.287867,-0.6096 -0.643467,-1.143 -1.0668,-1.6002 -0.474133,-0.47413 -1.016,-0.8382 -1.6256,-1.0922 -0.677333,-0.27093 -1.337733,-0.4064 -1.9812,-0.4064 -0.643467,0 -1.303867,0.13547 -1.9812,0.4064 -0.287867,0.13547 -0.567267,0.29633 -0.8382,0.4826 -0.270933,0.16933 -0.524933,0.37253 -0.762,0.6096 -0.237067,0.23707 -0.448733,0.49107 -0.635,0.762 -0.169333,0.254 -0.321733,0.5334 -0.4572,0.8382 -0.270933,0.67733 -0.4064,1.33773 -0.4064,1.9812 0,0.33867 0.03387,0.66887 0.1016,0.9906 0.06773,0.32173 0.169333,0.65193 0.3048,0.9906 0.135467,0.28787 0.287867,0.56727 0.4572,0.8382 0.186267,0.27093 0.397933,0.5334 0.635,0.7874 0.237067,0.22013 0.491067,0.42333 0.762,0.6096 0.270933,0.16933 0.550333,0.32173 0.8382,0.4572 0.626533,0.254 1.286933,0.381 1.9812,0.381 0.677333,0 1.337733,-0.127 1.9812,-0.381 0.592667,-0.27093 1.134533,-0.62653 1.6256,-1.0668 z"
       inkscape:connector-curvature="0"
       sodipodi:nodetypes="cccccccccccccccccccccssccsccccccccccccccccsccssccccscsccsccscscsccccscccccsccscscscscscscscscscscsccssccccscsccscscscccccccsccsscccccccccccccscscscscscsccccscscsccsscccsccsccsscccccscccccccscscscscscscsccssscccscsccccscsccscccccscscscscsccccscscsccsscccsccsccsscccccscc" />
  </g>
</svg>
