<?xml version="1.0" encoding="iso-8859-1"?>
<!-- Generator: Adobe Illustrator 19.1.0, SVG Export Plug-In . SVG Version: 6.00 Build 0)  -->
<svg xmlns="http://www.w3.org/2000/svg" xmlns:xlink="http://www.w3.org/1999/xlink" version="1.1" id="Capa_1" x="0px" y="0px" viewBox="0 0 269.13 269.13" style="enable-background:new 0 0 269.13 269.13;" xml:space="preserve" width="512px" height="512px">
<g>
	<path d="M123.015,21.026h-25.2c-2.52,0-4.2,1.682-4.2,4.205s1.68,4.205,4.2,4.205h25.2c2.52,0,4.2-1.682,4.2-4.205   S125.535,21.026,123.015,21.026z" fill="#E4423F"/>
	<path d="M79.755,22.287c-0.84,0.841-1.26,1.682-1.26,2.944s0.42,2.103,1.26,2.944c0.84,0.841,2.1,1.262,2.94,1.262   c1.26,0,2.1-0.421,2.94-1.262c0.84-0.841,1.26-1.682,1.26-2.944c0-1.262-0.42-2.103-1.26-2.944   C84.375,20.605,81.435,20.605,79.755,22.287z" fill="#E4423F"/>
	<path d="M114.615,129.94c0.84,0.841,2.1,1.262,2.94,1.262c0.84,0,2.1-0.421,2.94-1.262c1.68-1.682,1.68-4.205,0-5.887l-16.8-16.821   c-1.68-1.682-4.2-1.682-5.88,0c-1.68,1.682-1.68,4.205,0,5.887L114.615,129.94z" fill="#E4423F"/>
	<path d="M67.575,110.596c-1.68,1.682-1.68,4.205,0,5.887l60.06,60.134c0.84,0.841,2.1,1.262,2.94,1.262   c0.84,0,2.1-0.421,2.94-1.262c1.68-1.682,1.68-4.205,0-5.887l-60.06-60.134C71.775,108.914,69.255,108.914,67.575,110.596z" fill="#E4423F"/>
	<path d="M112.515,256.515c7.14,0,12.6-5.467,12.6-12.615c0-7.149-5.46-12.615-12.6-12.615c-7.14,0-12.6,5.467-12.6,12.615   C99.915,251.048,105.375,256.515,112.515,256.515z M112.515,239.694c2.52,0,4.2,1.682,4.2,4.205c0,2.523-1.68,4.205-4.2,4.205   c-2.52,0-4.2-1.682-4.2-4.205C108.315,241.797,109.995,239.694,112.515,239.694z" fill="#E4423F"/>
	<path d="M233.055,75.693h-24.78l0.84-58.872c0-9.251-7.56-16.821-16.8-16.821h-159.6c-9.24,0-16.8,7.569-16.8,16.821V252.31   c0,9.251,7.56,16.821,16.8,16.821h127.26h30.24h42.84c11.76,0,20.16-9.251,20.16-22.287V97.98   C253.215,84.944,244.815,75.693,233.055,75.693z M89.415,92.934l-42.42-42.472h109.62c2.52,0,4.2-1.682,4.2-4.205   c0-2.523-1.68-4.205-4.2-4.205H37.335h-0.42h-2.1c-2.52,0-4.2,1.682-4.2,4.205v176.617c0,2.523,1.68,4.205,4.2,4.205h100.8v19.764   c0,5.467,2.1,10.092,5.88,13.877H32.715c-4.62,0-8.4-3.785-8.4-8.41V16.821c0-4.626,3.78-8.41,8.4-8.41h159.6   c4.62,0,8.4,3.785,8.4,8.41l-0.84,58.872h-9.66V46.257c0-2.523-1.68-4.205-4.2-4.205h-8.4c-2.52,0-4.2,1.682-4.2,4.205   c0,2.523,1.68,4.205,4.2,4.205h4.2v25.231h-21.42c-12.6,0-24.78,11.354-24.78,23.128v119.847h-96.6V54.247l44.52,44.575   c0.84,0.841,2.1,1.262,2.94,1.262s2.1-0.421,2.94-1.262C91.095,97.139,91.095,94.616,89.415,92.934z M244.815,246.843   c0,6.728-3.78,13.877-11.76,13.877h-42.84h-29.82c-7.14,0-16.38-6.308-16.38-13.877V98.821c0-7.149,7.98-14.718,16.38-14.718h72.66   c7.98,0,11.76,7.149,11.76,13.877V246.843z" fill="#E4423F"/>
	<path d="M196.515,241.797c-4.62,0-8.4,3.785-8.4,8.41s3.78,8.41,8.4,8.41c4.62,0,8.4-3.785,8.4-8.41   S201.135,241.797,196.515,241.797z M196.515,254.412c-2.1,0-4.2-1.682-4.2-4.205c0-2.103,1.68-4.205,4.2-4.205   c2.1,0,4.2,1.682,4.2,4.205C200.715,252.73,198.615,254.412,196.515,254.412z" fill="#E4423F"/>
	<path d="M186.015,100.924h16.8c2.52,0,4.2-1.682,4.2-4.205c0-2.523-1.68-4.205-4.2-4.205h-16.8c-2.52,0-4.2,1.682-4.2,4.205   C181.815,99.242,183.495,100.924,186.015,100.924z" fill="#E4423F"/>
	<path d="M175.515,101.344c1.26,0,2.1-0.421,2.94-1.262c0.84-0.841,1.26-2.103,1.26-2.944c0-0.841-0.42-2.103-1.26-2.944   c-1.68-1.682-4.2-1.682-5.88,0c-0.84,0.841-1.26,2.103-1.26,2.944c0,1.262,0.42,2.103,1.26,2.944   C173.415,100.924,174.675,101.344,175.515,101.344z" fill="#E4423F"/>
	<path d="M236.415,105.129h-84c-2.52,0-4.2,1.682-4.2,4.205v126.155c0,2.523,1.68,4.205,4.2,4.205h84c2.52,0,4.2-1.682,4.2-4.205   V109.334C240.615,106.811,238.935,105.129,236.415,105.129z M232.215,231.284h-75.6V113.539h75.6V231.284z" fill="#E4423F"/>
</g>
<g>
</g>
<g>
</g>
<g>
</g>
<g>
</g>
<g>
</g>
<g>
</g>
<g>
</g>
<g>
</g>
<g>
</g>
<g>
</g>
<g>
</g>
<g>
</g>
<g>
</g>
<g>
</g>
<g>
</g>
</svg>
