<svg xmlns="http://www.w3.org/2000/svg" width="512" height="512" viewBox="0 0 950.002 950.002">
  <g fill="#E4423F">
    <path d="M949.87 741.307l-.218-6.22c-.075-2.083-.152-4.17-.23-6.27l-.06-1.57-.03-.786-.007-.196-.02-1.76-.006-.082-.026-.326-.2-2.607c-.272-3.48-.543-6.974-.814-10.468l-.207-2.645-.312-3.43-.645-6.836-.67-6.798-.342-3.38-.414-3.12c-1.14-8.242-2.157-16.342-3.61-24.13-.685-3.895-1.318-7.726-2.03-11.46l-2.277-10.914c-1.402-7.098-3.163-13.727-4.647-19.855l-1.115-4.492c-.403-1.456-.8-2.876-1.184-4.263l-2.22-7.855c-.71-2.46-1.337-4.77-1.99-6.89-.675-2.11-1.293-4.05-1.852-5.802l-2.08-6.455c-.814-2.53-3.486-3.95-6.042-3.223l-160.613 45.77c-2.448.698-3.965 3.136-3.5 5.638.175.934.374 2.004.596 3.2l.76 3.995c.26 1.457.465 3.053.728 4.74l.82 5.383c.142.947.31 1.912.44 2.91l.35 3.07c.447 4.184 1.115 8.67 1.413 13.48.197 2.393.4 4.852.61 7.36.155 2.52.233 5.1.367 7.71.348 5.213.282 10.64.382 16.115l.023 2.04-.073 1.804c-.04 1.203-.083 2.408-.124 3.617l-.098 3.62-.038 1.806-.11 2.602c-.148 3.502-.3 7.002-.448 10.49l-.112 2.613-.015.326-.003.08c.002.394-.03-3.11-.02-1.597l-.013.13-.048.515-.096 1.03-.37 4.103c-.12 1.36-.24 2.716-.356 4.063-.16 1.342-.32 2.678-.48 4.004-.34 2.65-.55 5.275-.972 7.832l-1.09 7.534-1.246 7.166c-.366 2.33-.856 4.574-1.292 6.746-.456 2.168-.82 4.273-1.292 6.27-.46 2-.903 3.91-1.324 5.73l-.606 2.626-.588 2.125-.327 1.22H944.3c2.633 0 4.826-2.065 4.926-4.696 0-.015 0-.03.002-.046.163-3.658.33-7.414.503-11.254l.225-11.742c.112-3.982-.01-8.03-.02-12.12-.023-2.046-.044-4.103-.066-6.17zM898.79 535.13c2.636-1.062 3.838-4.114 2.623-6.68-.54-1.142-1.17-2.476-1.886-3.985-.675-1.418-1.42-2.988-2.23-4.697l-3.397-6.916c-1.222-2.46-2.52-5.076-3.893-7.834-.695-1.434-1.378-2.617-2.093-3.963-.712-1.316-1.44-2.662-2.186-4.037-1.497-2.744-3.028-5.613-4.67-8.55-1.698-2.907-3.452-5.913-5.255-9.003-.904-1.54-1.82-3.104-2.75-4.684l-2.946-4.722-6.112-9.706c-4.377-6.45-8.734-13.196-13.597-19.76-1.194-1.654-2.395-3.313-3.598-4.977l-1.81-2.494-1.884-2.452-7.58-9.812c-2.575-3.237-5.24-6.406-7.85-9.587-1.32-1.58-2.6-3.184-3.946-4.728-1.35-1.54-2.697-3.074-4.04-4.603-1.343-1.524-2.68-3.044-4.01-4.555-1.324-1.517-2.658-3.008-4.034-4.45l-8.06-8.585c-2.65-2.81-5.394-5.45-8.005-8.09-2.63-2.627-5.185-5.206-7.795-7.6-2.58-2.417-5.093-4.767-7.52-7.04-2.42-2.28-4.888-4.35-7.188-6.4-2.32-2.028-4.542-3.97-6.656-5.82l-6.156-5.072-5.416-4.442c-1.676-1.367-3.28-2.552-4.692-3.657l-5.177-3.974c-2.106-1.616-5.107-1.27-6.8.776l-86.203 104.346c-1.625 1.968-1.486 4.844.327 6.64l2.49 2.463c.896.902 1.924 1.856 2.978 2.97l3.41 3.604 3.88 4.078c1.316 1.482 2.7 3.043 4.146 4.67 1.427 1.642 2.987 3.272 4.47 5.09l4.637 5.573c1.62 1.878 3.168 3.917 4.77 5.977 1.585 2.074 3.28 4.12 4.87 6.312l4.852 6.658c.836 1.107 1.63 2.262 2.41 3.434l2.38 3.506c.8 1.168 1.602 2.342 2.405 3.52.802 1.178 1.537 2.41 2.312 3.615 1.522 2.432 3.1 4.828 4.596 7.277l4.37 7.41 1.09 1.838 1.02 1.877c.682 1.245 1.36 2.49 2.038 3.726 2.795 4.89 5.154 9.93 7.623 14.666l3.33 7.152 1.614 3.453 1.46 3.43c.964 2.246 1.902 4.434 2.81 6.547l2.428 6.2c.39.99.77 1.962 1.142 2.91.352.927.788 1.93 1.022 2.7l1.574 4.6 1.413 4.016 1.574 4.697c.53 1.584.995 2.984 1.395 4.184.898 2.694 3.88 4.067 6.515 3.01l149.464-60.05zM459.808 348.748l4.324.59 5.063.882 5.747.987c1.758.292 3.58.716 5.472 1.112l54.404-111.283c-2.697-.42-5.372-.84-7.993-1.248-1.796-.268-3.564-.575-5.325-.795l-5.218-.632-9.99-1.187-9.357-.802c-3-.23-5.86-.533-8.6-.663l-7.765-.38-6.818-.323-5.792-.093-6.222-.075c-2.655-.033-4.852 2.042-4.98 4.694L451.8 343.11c-.122 2.553 1.72 4.775 4.25 5.122l3.76.516zM606.027 405.78l4.15 3.02 3.654 2.618c.49.336 1.297.948 1.956 1.438l1.94 1.448c1.338 1 2.52 1.88 3.532 2.636 2.276 1.698 5.506 1.124 7.065-1.25l71.03-108.196c1.56-2.374.803-5.567-1.66-6.98l-3.824-2.193c-.666-.38-1.366-.782-2.102-1.204l-2.51-1.42-6.543-3.605c-2.336-1.272-4.823-2.626-7.443-4.055-2.497-1.25-5.12-2.566-7.86-3.94-2.75-1.34-5.556-2.834-8.565-4.19-2.995-1.37-6.09-2.79-9.273-4.25-3.16-1.49-6.497-2.846-9.883-4.268-3.4-1.392-6.82-2.914-10.393-4.257l-2.736-1.036-30.64 132.998c1.693 1.064 3.29 2.192 4.86 3.21l5.247 3.48zM364.434 348.206c1.372-.18 2.72-.405 4.064-.547l3.984-.406c2.615-.27 5.158-.535 7.62-.79l7.14-.48 3.354-.23c1.09-.072 2.182-.165 3.118-.166l5.48-.143 4.8-.152 5.024-.033 4.408-.024c2.84-.015 5.072-2.42 4.886-5.254l-6.394-97.57c-.187-2.834-2.713-4.927-5.53-4.57l-4.373.55-5.09.65c-2.187.324-4.553.674-7.082 1.05l-8.034 1.223c-1.45.204-2.782.475-4.18.74-1.396.265-2.823.538-4.28.816-2.91.563-5.938 1.15-9.076 1.755l-9.642 2.196-5.02 1.155c-1.69.396-3.388.88-5.11 1.325-3.434.915-6.94 1.85-10.51 2.8l-10.756 3.243c-1.812.56-3.643 1.09-5.463 1.69l-5.467 1.864-5.5 1.885c-1.84.626-3.683 1.255-5.5 1.972-3.646 1.39-7.305 2.788-10.964 4.185-3.643 1.425-7.226 3.005-10.817 4.5-1.79.763-3.585 1.5-5.354 2.282l-5.252 2.425-5.2 2.41c-1.726.797-3.444 1.583-5.114 2.45l-9.92 5.008c-3.256 1.633-6.36 3.435-9.443 5.094-3.068 1.69-6.086 3.3-8.933 5.038-2.863 1.698-5.648 3.35-8.342 4.95-2.702 1.575-5.208 3.277-7.664 4.815l-6.998 4.487-6.178 4.24-5.418 3.73c-1.672 1.154-3.15 2.297-4.514 3.285l-4.7 3.47c-2.13 1.573-2.63 4.544-1.14 6.735l40.514 59.566c1.442 2.12 4.26 2.785 6.494 1.524 1.03-.58 2.245-1.267 3.632-2.05 1.21-.668 2.517-1.458 3.994-2.227 1.476-.77 3.072-1.6 4.777-2.488 1.7-.89 3.51-1.835 5.417-2.832l6.107-2.928c2.138-.996 4.307-2.137 6.646-3.132 2.32-1.02 4.72-2.072 7.19-3.155 2.442-1.125 5.03-2.108 7.648-3.158 2.633-1.02 5.27-2.174 8.03-3.15l8.374-3.017c1.403-.533 2.847-.984 4.294-1.446l4.353-1.4 4.38-1.417c1.47-.447 2.964-.847 4.447-1.275 2.98-.824 5.938-1.738 8.938-2.504l8.994-2.224c1.483-.395 2.99-.704 4.488-1.013l4.475-.942c1.482-.314 2.96-.627 4.43-.94 1.472-.293 2.953-.52 4.414-.783 2.922-.507 5.808-1.01 8.648-1.5 2.85-.394 5.653-.782 8.4-1.16zM88.175 425.22l-3.2 4.526-3.215 4.56c-1.07 1.526-2.073 3.11-3.115 4.668-2.054 3.137-4.156 6.25-6.168 9.422l-5.887 9.585-1.46 2.387-1.386 2.425-2.754 4.822C57.25 473.967 54 480.46 50.7 486.63l-4.53 9.265-2.178 4.488c-.675 1.498-1.34 2.98-2 4.44-1.31 2.92-2.583 5.76-3.816 8.505l-3.33 8.045c-1.045 2.586-2.102 5.033-3.003 7.408l-2.527 6.753c-.79 2.117-1.53 4.098-2.212 5.93l-1.734 5.084c-.68 2.018-1.264 3.75-1.74 5.168-.846 2.506.44 5.225 2.91 6.172l37.71 14.457c2.4.92 5.102-.154 6.21-2.473l1.963-4.1 2.073-4.312 2.596-5.004c.924-1.78 1.906-3.68 2.942-5.68 1.044-1.994 2.246-4.04 3.44-6.2l3.77-6.704 4.25-7.043 2.21-3.668 2.384-3.69c1.606-2.48 3.247-5.01 4.916-7.59 3.546-5.02 7.014-10.306 10.933-15.405l2.882-3.88 1.444-1.946 1.514-1.905c2.016-2.54 4.04-5.086 6.064-7.633 2.06-2.516 4.2-4.967 6.28-7.44 1.053-1.226 2.065-2.478 3.144-3.67l3.228-3.563 3.195-3.532c1.05-1.178 2.11-2.335 3.21-3.444l6.41-6.64c2.102-2.177 4.295-4.197 6.365-6.24 2.086-2.026 4.104-4.026 6.182-5.86l5.956-5.42c1.908-1.76 3.874-3.332 5.69-4.91l5.246-4.468c1.635-1.295 3.187-2.523 4.645-3.68 1.45-1.153 2.807-2.234 4.062-3.234.576-.476 1.356-1.046 2.015-1.547.676-.51 1.32-.997 1.933-1.458l3.518-2.655c2.267-1.71 2.618-4.973.774-7.133l-42.935-50.3c-1.844-2.16-5.12-2.325-7.166-.355l-3.174 3.058c-.552.53-1.134 1.092-1.744 1.68-.62.602-1.212 1.15-1.982 1.938l-4.764 4.81-5.392 5.47-5.557 6.018c-1.912 2.113-3.974 4.242-5.97 6.576l-6.2 7.19c-2.156 2.438-4.24 5.057-6.386 7.714-2.13 2.67-4.373 5.336-6.514 8.16-2.135 2.824-4.305 5.695-6.5 8.603-1.117 1.442-2.184 2.93-3.238 4.44zM10.155 601.572c-.25 1.236-.545 2.684-.878 4.32l-1.01 4.977c-.362 1.85-.715 4.038-1.11 6.27-.387 2.254-.8 4.652-1.233 7.18-.21 1.26-.45 2.562-.65 3.875l-.54 4c-.705 5.453-1.632 11.32-2.166 17.588l-.953 9.61c-.268 3.282-.447 6.644-.678 10.052-.54 6.81-.64 13.875-.864 21.02L0 693.153l.013 2.697.03 5.413.032 5.428.017 2.718.104 2.72.44 10.84.112 2.694.034.873.048.65.096 1.3.382 5.18.38 5.138c.172 1.777.343 3.55.515 5.31l.516 5.24c.085.864.17 1.728.257 2.587l.32 2.53 1.255 9.87c.495 3.21.98 6.354 1.45 9.412.44 3.057 1.006 6.014 1.527 8.873l.127.682c.435 2.338 2.47 4.03 4.846 4.03h13.29c2.84 0 5.09-2.388 4.924-5.22-.045-.756-.09-1.52-.142-2.29-.166-2.757-.366-5.6-.43-8.532l-.295-9.01c-.02-3.072-.038-6.21-.057-9.404l-.015-2.4.053-2.384c.036-1.592.07-3.197.107-4.812.035-1.61.07-3.234.107-4.865l.24-5.147.24-5.188.062-1.303.03-.652.004-.082c0-.207.004.19.006.123l.012-.157.025-.314.202-2.524.807-10.117.206-2.528.29-2.52c.195-1.68.388-3.355.58-5.028l.576-5.002.285-2.488.368-2.47c1.012-6.57 1.872-13.034 3.132-19.222.59-3.1 1.12-6.15 1.727-9.12l1.936-8.665c1.164-5.64 2.673-10.885 3.9-15.746.316-1.212.624-2.4.925-3.56.318-1.144.66-2.226.977-3.298l1.81-6.06c.58-1.917 1.058-3.632 1.614-5.353.582-1.757 1.116-3.366 1.6-4.82.526-1.587.99-2.987 1.39-4.187.894-2.693-.67-5.58-3.413-6.31l-33.32-8.886c-2.744-.733-5.536.992-6.102 3.775zM387.317 774.27c10.84 5.3 22.323 7.81 33.628 7.81 28.378 0 55.65-15.81 68.953-43.022 2.562-5.238 4.545-11.02 5.835-16.467l77.577-336.716 29.544-128.233 18.303-79.436c2.13-9.245-5.224-15.543-12.602-15.543-4.32 0-8.647 2.16-11.087 7.15l-37.245 76.182-54.944 112.386-153.176 313.31c-18.603 38.052-2.837 83.98 35.213 102.582zm36.472-108.434c20.758 0 37.587 16.828 37.587 37.588 0 20.758-16.83 37.588-37.588 37.588s-37.59-16.83-37.59-37.588c0-20.762 16.83-37.588 37.59-37.588z"/>
  </g>
</svg>
