<svg xmlns="http://www.w3.org/2000/svg" viewBox="0 0 1000 1000">
  <g fill="#E4423F">
    <path d="M307.6 425.1H256l-21.2 109.1H283s58.7 1.5 61.4-70.7c2.8-41.5-36.8-38.4-36.8-38.4zM748.1 425.1h-51.6l-21.2 109.1h48.2s58.7 1.5 61.4-70.7c2.9-41.5-36.8-38.4-36.8-38.4z"/>
    <path d="M500 241.9C229.4 241.9 10 357.5 10 500c0 142.5 219.4 258.1 490 258.1S990 642.6 990 500c0-142.5-219.4-258.1-490-258.1zM280.6 574.7l-52.2-.4-14.7 68.6h-55.9l50.4-258.1s71.6.9 118.6 0 93.2 32.3 71.6 107.5c-26 89.8-117.8 82.4-117.8 82.4zm251.3 0s13.4-60 19.3-101.6c2.4-17.1 13-46.2-15-46.2-23.4-.1-58.4-.2-58.4-.2l-29.5 148.1H393l51.6-259.3h56.6L487 384.8h58.4s77.4-6.1 68.2 57.8c-9.2 63.9-26.4 132.1-26.4 132.1h-55.3zm306.9-82.3c-25.8 89.7-117.7 82.3-117.7 82.3l-52.2-.4-14.7 68.6h-55.9l50.4-258.1s71.6.9 118.6 0c46.9-.9 93.1 32.3 71.5 107.6z"/>
  </g>
</svg>
