<?xml version="1.0" encoding="utf-8"?>
<!-- Generator: Adobe Illustrator 19.2.1, SVG Export Plug-In . SVG Version: 6.00 Build 0)  -->
<!DOCTYPE svg PUBLIC "-//W3C//DTD SVG 1.1//EN" "http://www.w3.org/Graphics/SVG/1.1/DTD/svg11.dtd">
<svg version="1.1" id="Layer_1" xmlns="http://www.w3.org/2000/svg" xmlns:xlink="http://www.w3.org/1999/xlink" x="0px" y="0px"
	 viewBox="0 0 59.2 21.2" style="enable-background:new 0 0 59.2 21.2;" xml:space="preserve">
<style type="text/css">
	.st0{fill:#E4423F;}
</style>
<path class="st0" d="M40.5,4.9v7c0,0.8,0.1,1,0.9,1.2l-0.2,1.2c-0.4-0.1-0.9-0.1-1.3-0.3c-0.7-0.3-0.9-1-0.9-1.6c0-2,0-3.9,0-5.9V6
	c-0.3,0-0.7,0-0.9,0.1c-0.3,0.1-0.5,0.3-0.6,0.8c0,0.6,0,1.2,0,1.7c0,0.3,0,0.5,0,0.8c-0.1,0.5-0.3,0.9-0.7,1.2c0,0,0,0.1,0,0.1
	c0.6,0.4,0.7,1.1,0.7,1.8c0,0.5,0,1.1,0,1.6c0,0.8,0.2,1.1,1.1,1.1l0.1,0v1.1c-0.6,0-1.1,0-1.7-0.3c-0.6-0.3-0.8-0.8-0.8-1.4
	c0-0.6,0-1.2,0-1.9c0-0.1,0-0.2,0-0.3c0-0.7-0.3-1-1-1.2c0,0,0-0.1,0-0.1c0-0.3,0-0.6,0-0.9l0.1,0c0.8-0.2,1-0.5,1-1.3
	c0-0.5,0-1,0-1.5c0-0.3,0-0.7,0.1-1C36.5,5.5,37,5.1,37.9,5c0.3,0,0.5-0.1,0.8-0.1C39.2,4.9,39.8,4.9,40.5,4.9L40.5,4.9L40.5,4.9z
	 M42.9,11.4c-0.1,0.7,0.5,1.4,1.3,1.5c0.7,0.1,1.4,0,2.2-0.2c0.1,0.3,0.1,0.7,0.2,1c0,0.1-0.1,0.1-0.1,0.2c-1.1,0.3-2.2,0.4-3.3,0
	c-0.7-0.3-1.2-0.7-1.4-1.4c-0.4-1.1-0.4-2.1,0.1-3.2c0.7-1.5,2.5-1.9,3.8-1.3c0.8,0.4,1.2,1.1,1.3,1.9c0.1,0.5,0.1,1,0.1,1.5
	C45.5,11.4,44.2,11.4,42.9,11.4L42.9,11.4L42.9,11.4z M45.5,10.4C45.5,9.5,45,9,44.2,9c-0.8,0-1.4,0.6-1.3,1.4H45.5z M55.7,16.3
	v-1.1l0.3,0c0.6,0,0.9-0.3,0.9-0.9c0-0.6,0-1.1,0-1.7c0-0.3,0-0.5,0.1-0.8c0.1-0.5,0.3-0.8,0.7-1.1c-0.8-0.5-0.8-1.2-0.8-2
	c0-0.5,0-1,0-1.6c0-0.7-0.3-1-1-1l-0.2,0V4.9c0.6,0,1.2,0,1.8,0.4c0.5,0.3,0.7,0.8,0.7,1.4c0,0.7,0,1.3,0,2c0,0.2,0,0.4,0.1,0.6
	c0.1,0.5,0.5,0.7,1,0.8v1.1c-0.5,0-0.8,0.3-1,0.7c-0.1,0.2-0.1,0.4-0.1,0.6c0,0.7,0,1.3,0,2c0,1.1-0.6,1.6-1.6,1.8
	C56.2,16.2,56,16.2,55.7,16.3L55.7,16.3L55.7,16.3z M55.9,8.1l-0.3,1.1C55.1,9,54.5,8.9,53.9,9c-0.4,0.1-0.6,0.2-0.7,0.5
	c-0.1,0.3,0.1,0.5,0.4,0.7c0.3,0.1,0.6,0.3,0.9,0.4c0.2,0.1,0.4,0.2,0.5,0.2c0.9,0.4,1.1,1,1.1,1.9c-0.1,0.7-0.6,1.2-1.4,1.4
	c-1,0.2-2,0.2-3-0.2l0.2-1.1c0.4,0.1,0.9,0.2,1.3,0.3c0.4,0,0.7,0,1.1,0c0.2,0,0.4-0.1,0.5-0.4c0.1-0.3,0-0.5-0.2-0.6
	c-0.3-0.2-0.6-0.3-0.9-0.4c-0.4-0.2-0.7-0.3-1.1-0.5c-1-0.6-1-2.3,0.1-2.9c0.3-0.2,0.7-0.3,1.1-0.3C54.5,7.7,55.2,7.9,55.9,8.1
	L55.9,8.1L55.9,8.1z M51.4,8.1l-0.3,1.2C50.5,9,49.9,8.9,49.3,9c-0.4,0.1-0.6,0.2-0.7,0.5c0,0.3,0.1,0.5,0.5,0.7
	c0.3,0.2,0.6,0.3,1,0.4c0.2,0.1,0.3,0.1,0.5,0.2c0.9,0.4,1.2,1,1.1,2c-0.1,0.7-0.7,1.2-1.5,1.3c-0.9,0.1-1.8,0.1-2.6-0.2
	c-0.2-0.1-0.3-0.1-0.2-0.4c0.1-0.3,0.1-0.5,0.2-0.8c0.4,0.1,0.8,0.2,1.3,0.3c0.4,0,0.7,0,1.1,0c0.2,0,0.4-0.2,0.5-0.4
	c0-0.3,0-0.5-0.3-0.6c-0.3-0.2-0.7-0.3-1-0.5c-0.3-0.2-0.6-0.3-0.9-0.5c-1-0.6-1-2.3,0.1-2.9c0.5-0.3,1-0.3,1.6-0.3
	C50.3,7.9,50.8,8,51.4,8.1L51.4,8.1L51.4,8.1z"/>
<path class="st0" d="M24.3,12.2c-1,0-1.8,0.2-2.6,0.6c-0.3-0.5-0.5-1-0.6-1.3c-0.1-0.4-0.1-0.6-0.1-1.1c0.1-0.5,0.3-1.1,0.3-1.2
	c0-0.1-0.1-0.3-0.6-0.3c-0.6,0-1.1,0.1-1.1,0.3c-0.1,0.1-0.2,0.5-0.2,0.8c-0.1,0.5-1.1,2.4-1.7,3.3c-0.2-0.4-0.4-0.7-0.4-1
	c-0.1-0.4-0.1-0.6-0.1-1.1c0.1-0.5,0.3-1.1,0.3-1.2c0-0.1-0.1-0.3-0.6-0.3c-0.6,0-1.1,0.1-1.1,0.3c-0.1,0.1-0.1,0.5-0.2,0.8
	c-0.1,0.3-1.5,3.4-1.9,4.2c-0.2,0.4-0.3,0.7-0.5,1l0,0c0,0,0,0,0,0c-0.1,0.2-0.2,0.3-0.2,0.3s0,0,0,0c-0.1,0.1-0.2,0.3-0.2,0.3
	c0,0-0.1-0.4,0-0.9c0.2-1.1,0.7-2.7,0.7-2.8c0,0,0.1-0.3-0.3-0.5c-0.4-0.1-0.5,0.1-0.6,0.1s-0.1,0.1-0.1,0.1s0.4-1.9-0.9-1.9
	c-0.8,0-1.9,0.9-2.5,1.7c-0.4,0.2-1.1,0.6-1.9,1c-0.3,0.2-0.6,0.3-0.9,0.5c0,0,0,0-0.1-0.1C4.9,12.2,2,11,2.1,8.7
	c0-0.8,0.3-3,5.6-5.6c4.3-2.1,7.8-1.5,8.4-0.2c0.9,1.9-1.9,5.4-6.3,5.9C8.1,8.9,7.2,8.3,6.9,8C6.7,7.8,6.7,7.8,6.6,7.8
	c-0.1,0.1-0.1,0.3,0,0.4c0.1,0.4,0.7,1,1.6,1.3C9,9.8,11,9.9,13.5,9c2.7-1.1,4.8-4,4.2-6.4C17,0.1,12.9-0.7,9,0.7
	C6.7,1.5,4.2,2.8,2.4,4.5C0.2,6.5-0.1,8.2,0,9c0.5,2.6,4.1,4.3,5.5,5.5c-0.1,0-0.1,0.1-0.2,0.1c-0.7,0.4-3.4,1.8-4.1,3.3
	c-0.8,1.7,0.1,2.9,0.7,3.1c1.8,0.5,3.7-0.4,4.7-1.9c1-1.5,0.9-3.5,0.4-4.4c0,0,0,0,0,0c0.2-0.1,0.4-0.2,0.6-0.3
	c0.4-0.2,0.7-0.4,1-0.6c-0.2,0.5-0.3,1.1-0.4,1.9c-0.1,1,0.3,2.2,0.8,2.7c0.2,0.2,0.5,0.2,0.7,0.2c0.6,0,0.9-0.5,1.2-1.1
	c0.4-0.7,0.7-1.6,0.7-1.6s-0.4,2.3,0.7,2.3c0.4,0,0.8-0.5,1-0.8c0,0,0,0,0,0s0,0,0-0.1c0-0.1,0.1-0.1,0.1-0.1s0,0,0,0
	c0.2-0.3,0.5-0.9,1.1-2C15.4,13.8,16,12,16,12s0.1,0.4,0.3,1.1c0.1,0.4,0.4,0.9,0.6,1.3c-0.2,0.2-0.3,0.4-0.3,0.4s0,0,0,0
	c-0.1,0.2-0.3,0.4-0.4,0.6c-0.6,0.7-1.2,1.4-1.3,1.7c-0.1,0.3-0.1,0.5,0.1,0.6c0.1,0.1,0.4,0.1,0.7,0.1c0.5,0,0.9-0.2,1-0.2
	c0.3-0.1,0.6-0.2,0.9-0.5c0.6-0.4,0.9-1,0.9-1.8c0-0.4-0.2-0.8-0.3-1.2c0.1-0.1,0.1-0.1,0.1-0.2c0.9-1.3,1.5-2.7,1.5-2.7
	s0.1,0.4,0.3,1.1c0.1,0.4,0.3,0.8,0.5,1.1c-0.8,0.7-1.3,1.4-1.5,1.9c-0.3,0.9-0.1,1.4,0.4,1.5c0.2,0,0.5-0.1,0.8-0.2
	c0.3-0.1,0.6-0.3,1-0.5c0.6-0.4,1.1-1,1.1-1.7c0-0.4-0.1-0.7-0.2-1c0.7-0.3,1.6-0.4,2.7-0.3c2.5,0.3,2.9,1.8,2.8,2.5
	c-0.1,0.6-0.6,1-0.8,1.1s-0.2,0.1-0.2,0.2c0,0.1,0.1,0.1,0.2,0.1c0.2,0,1.3-0.5,1.3-1.7C28.3,13.8,26.8,12.1,24.3,12.2z M5.4,18.5
	c-0.8,0.9-1.9,1.2-2.4,0.9c-0.5-0.3-0.3-1.6,0.7-2.6c0.6-0.6,1.4-1.1,1.9-1.4c0.1-0.1,0.3-0.2,0.5-0.3c0,0,0.1,0,0.1,0l0,0
	c0,0,0.1-0.1,0.1-0.1C6.6,16.4,6.2,17.6,5.4,18.5z M11.3,14.5c-0.3,0.7-0.9,2.5-1.2,2.4c-0.3-0.1-0.5-1.4-0.1-2.7
	c0.2-0.7,0.7-1.5,1-1.8c0.4-0.5,0.9-0.7,1.1-0.5C12.2,12.2,11.5,14.1,11.3,14.5z M16.2,16.9c-0.1,0.1-0.2,0.1-0.3,0.1
	c0,0,0.1-0.1,0.1-0.1s0.6-0.7,0.9-1c0.1-0.2,0.3-0.4,0.5-0.6c0,0,0,0,0,0.1C17.3,16.1,16.5,16.6,16.2,16.9z M20,16
	c-0.1-0.1-0.1-0.3,0.2-0.9c0.1-0.3,0.4-0.7,0.8-1.1c0.1,0.2,0.1,0.3,0.1,0.5C21.1,15.5,20.4,15.8,20,16z"/>
</svg>
